<?xml version="1.0" encoding="utf-8" standalone="no"?>
<!DOCTYPE svg PUBLIC "-//W3C//DTD SVG 1.1//EN"
  "http://www.w3.org/Graphics/SVG/1.1/DTD/svg11.dtd">
<!-- Created with matplotlib (http://matplotlib.org/) -->
<svg height="180pt" version="1.1" viewBox="0 0 360 180" width="360pt" xmlns="http://www.w3.org/2000/svg" xmlns:xlink="http://www.w3.org/1999/xlink">
 <defs>
  <style type="text/css">
*{stroke-linecap:square;stroke-linejoin:round;}
  </style>
 </defs>
 <g id="figure_1">
  <g id="patch_1">
   <path d="
M0 180
L360 180
L360 0
L0 0
z
" style="fill:#ffffff;"/>
  </g>
  <g id="axes_1">
   <g id="patch_2">
    <path d="
M45 144
L324 144
L324 18
L45 18
z
" style="fill:#ffffff;"/>
   </g>
   <g id="PolyCollection_1">
    <defs>
     <path d="
M45 -36
L45 -70.86
L46.3099 -62.53
L47.6197 -62.25
L48.9296 -62.95
L50.2394 -63.37
L51.5493 -67.29
L52.8592 -68.06
L54.169 -72.47
L55.4789 -77.3
L56.7887 -85.35
L58.0986 -84.79
L59.4085 -86.33
L60.7183 -80.45
L62.0282 -87.59
L63.338 -94.45
L64.6479 -82.76
L65.9577 -85.91
L67.2676 -89.06
L68.5775 -88.78
L69.8873 -76.67
L71.1972 -74.22
L72.507 -84.02
L73.8169 -80.03
L75.1268 -78.91
L76.4366 -84.02
L77.7465 -70.37
L79.0563 -71
L80.3662 -69.32
L81.6761 -67.85
L82.9859 -71.63
L84.2958 -78.56
L85.6056 -87.24
L86.9155 -84.16
L88.2254 -73.45
L89.5352 -79.68
L90.8451 -90.81
L92.1549 -87.03
L93.4648 -80.52
L94.7746 -90.6
L96.0845 -102.64
L97.3944 -101.66
L98.7042 -114.96
L100.014 -85.84
L101.324 -89.34
L102.634 -81.22
L103.944 -77.23
L105.254 -80.03
L106.563 -91.23
L107.873 -86.68
L109.183 -90.04
L110.493 -90.11
L111.803 -96.76
L113.113 -99.35
L114.423 -94.66
L115.732 -104.46
L117.042 -113.49
L118.352 -106.84
L119.662 -107.33
L120.972 -99.35
L122.282 -96.34
L123.592 -87.31
L124.901 -88.78
L126.211 -83.74
L127.521 -78.56
L128.831 -78
L130.141 -77.65
L131.451 -68.48
L132.761 -67.15
L134.07 -68.48
L135.38 -66.38
L136.69 -66.59
L138 -75.76
L139.31 -86.75
L140.62 -83.25
L141.93 -88.15
L143.239 -82.62
L144.549 -73.8
L145.859 -118.39
L147.169 -110.41
L148.479 -70.93
L149.789 -65.33
L151.099 -63.79
L152.408 -63.65
L153.718 -66.24
L155.028 -74.57
L156.338 -68.13
L157.648 -65.68
L158.958 -73.66
L160.268 -72.82
L161.577 -70.51
L162.887 -73.31
L164.197 -68.76
L165.507 -63.93
L166.817 -68.97
L168.127 -67.57
L169.437 -64.84
L170.746 -70.09
L172.056 -75.97
L173.366 -79.82
L174.676 -78.28
L175.986 -73.45
L177.296 -73.38
L178.606 -65.89
L179.915 -65.12
L181.225 -62.74
L182.535 -62.74
L183.845 -63.86
L185.155 -66.45
L186.465 -69.53
L187.775 -71.98
L189.085 -76.74
L190.394 -87.24
L191.704 -78.21
L193.014 -73.24
L194.324 -77.09
L195.634 -72.26
L196.944 -66.8
L198.254 -80.45
L199.563 -88.85
L200.873 -87.24
L202.183 -91.79
L203.493 -101.59
L204.803 -96.9
L206.113 -93.54
L207.423 -94.8
L208.732 -92.56
L210.042 -122.17
L211.352 -149.47
L212.662 -151.78
L213.972 -142.75
L215.282 -117.83
L216.592 -103.9
L217.901 -86.33
L219.211 -92
L220.521 -104.11
L221.831 -114.12
L223.141 -126.37
L224.451 -129.31
L225.761 -115.59
L227.07 -105.86
L228.38 -121.89
L229.69 -119.37
L231 -116.01
L232.31 -94.59
L233.62 -88.64
L234.93 -91.3
L236.239 -114.54
L237.549 -129.66
L238.859 -119.37
L240.169 -102.92
L241.479 -97.11
L242.789 -95.5
L244.099 -86.61
L245.408 -99.98
L246.718 -111.74
L248.028 -116.5
L249.338 -116.15
L250.648 -103.48
L251.958 -95.08
L253.268 -98.37
L254.577 -92.56
L255.887 -92.21
L257.197 -83.39
L258.507 -73.87
L259.817 -70.72
L261.127 -72.05
L262.437 -72.4
L263.746 -69.04
L265.056 -74.85
L266.366 -78.28
L267.676 -72.12
L268.986 -74.15
L270.296 -80.73
L271.606 -77.44
L272.915 -72.75
L274.225 -77.37
L275.535 -77.44
L276.845 -69.53
L278.155 -71.21
L279.465 -77.3
L280.775 -71.84
L282.085 -69.39
L283.394 -73.03
L284.704 -76.04
L286.014 -73.17
L287.324 -76.25
L288.634 -87.52
L289.944 -90.53
L291.254 -89.97
L292.563 -81.85
L293.873 -71.14
L295.183 -70.72
L296.493 -70.44
L297.803 -70.44
L299.113 -83.39
L300.423 -87.73
L301.732 -85
L303.042 -85.42
L304.352 -91.09
L305.662 -92.63
L306.972 -103.69
L308.282 -107.12
L309.592 -107.61
L310.901 -95.15
L312.211 -86.4
L313.521 -86.96
L314.831 -90.04
L316.141 -81.29
L317.451 -73.38
L318.761 -78
L320.07 -77.86
L321.38 -80.94
L322.69 -82.62
L324 -88.71
L324 -36
L324 -36
L322.69 -36
L321.38 -36
L320.07 -36
L318.761 -36
L317.451 -36
L316.141 -36
L314.831 -36
L313.521 -36
L312.211 -36
L310.901 -36
L309.592 -36
L308.282 -36
L306.972 -36
L305.662 -36
L304.352 -36
L303.042 -36
L301.732 -36
L300.423 -36
L299.113 -36
L297.803 -36
L296.493 -36
L295.183 -36
L293.873 -36
L292.563 -36
L291.254 -36
L289.944 -36
L288.634 -36
L287.324 -36
L286.014 -36
L284.704 -36
L283.394 -36
L282.085 -36
L280.775 -36
L279.465 -36
L278.155 -36
L276.845 -36
L275.535 -36
L274.225 -36
L272.915 -36
L271.606 -36
L270.296 -36
L268.986 -36
L267.676 -36
L266.366 -36
L265.056 -36
L263.746 -36
L262.437 -36
L261.127 -36
L259.817 -36
L258.507 -36
L257.197 -36
L255.887 -36
L254.577 -36
L253.268 -36
L251.958 -36
L250.648 -36
L249.338 -36
L248.028 -36
L246.718 -36
L245.408 -36
L244.099 -36
L242.789 -36
L241.479 -36
L240.169 -36
L238.859 -36
L237.549 -36
L236.239 -36
L234.93 -36
L233.62 -36
L232.31 -36
L231 -36
L229.69 -36
L228.38 -36
L227.07 -36
L225.761 -36
L224.451 -36
L223.141 -36
L221.831 -36
L220.521 -36
L219.211 -36
L217.901 -36
L216.592 -36
L215.282 -36
L213.972 -36
L212.662 -36
L211.352 -36
L210.042 -36
L208.732 -36
L207.423 -36
L206.113 -36
L204.803 -36
L203.493 -36
L202.183 -36
L200.873 -36
L199.563 -36
L198.254 -36
L196.944 -36
L195.634 -36
L194.324 -36
L193.014 -36
L191.704 -36
L190.394 -36
L189.085 -36
L187.775 -36
L186.465 -36
L185.155 -36
L183.845 -36
L182.535 -36
L181.225 -36
L179.915 -36
L178.606 -36
L177.296 -36
L175.986 -36
L174.676 -36
L173.366 -36
L172.056 -36
L170.746 -36
L169.437 -36
L168.127 -36
L166.817 -36
L165.507 -36
L164.197 -36
L162.887 -36
L161.577 -36
L160.268 -36
L158.958 -36
L157.648 -36
L156.338 -36
L155.028 -36
L153.718 -36
L152.408 -36
L151.099 -36
L149.789 -36
L148.479 -36
L147.169 -36
L145.859 -36
L144.549 -36
L143.239 -36
L141.93 -36
L140.62 -36
L139.31 -36
L138 -36
L136.69 -36
L135.38 -36
L134.07 -36
L132.761 -36
L131.451 -36
L130.141 -36
L128.831 -36
L127.521 -36
L126.211 -36
L124.901 -36
L123.592 -36
L122.282 -36
L120.972 -36
L119.662 -36
L118.352 -36
L117.042 -36
L115.732 -36
L114.423 -36
L113.113 -36
L111.803 -36
L110.493 -36
L109.183 -36
L107.873 -36
L106.563 -36
L105.254 -36
L103.944 -36
L102.634 -36
L101.324 -36
L100.014 -36
L98.7042 -36
L97.3944 -36
L96.0845 -36
L94.7746 -36
L93.4648 -36
L92.1549 -36
L90.8451 -36
L89.5352 -36
L88.2254 -36
L86.9155 -36
L85.6056 -36
L84.2958 -36
L82.9859 -36
L81.6761 -36
L80.3662 -36
L79.0563 -36
L77.7465 -36
L76.4366 -36
L75.1268 -36
L73.8169 -36
L72.507 -36
L71.1972 -36
L69.8873 -36
L68.5775 -36
L67.2676 -36
L65.9577 -36
L64.6479 -36
L63.338 -36
L62.0282 -36
L60.7183 -36
L59.4085 -36
L58.0986 -36
L56.7887 -36
L55.4789 -36
L54.169 -36
L52.8592 -36
L51.5493 -36
L50.2394 -36
L48.9296 -36
L47.6197 -36
L46.3099 -36
L45 -36
z
" id="C0_0_f6ed0c2b9e"/>
    </defs>
    <g clip-path="url(#p4e9530b0aa)">
     <use style="fill:#ff0000;opacity:0.1;stroke:#ff0000;stroke-linecap:butt;" x="0" xlink:href="#C0_0_f6ed0c2b9e" y="180.0"/>
    </g>
   </g>
   <g id="line2d_1">
    <path clip-path="url(#p4e9530b0aa)" d="
M45 109.14
L46.3099 117.47
L47.6197 117.75
L48.9296 117.05
L50.2394 116.63
L51.5493 112.71
L52.8592 111.94
L54.169 107.53
L55.4789 102.7
L56.7887 94.65
L58.0986 95.21
L59.4085 93.67
L60.7183 99.55
L63.338 85.55
L64.6479 97.24
L67.2676 90.94
L68.5775 91.22
L69.8873 103.33
L71.1972 105.78
L72.507 95.98
L73.8169 99.97
L75.1268 101.09
L76.4366 95.98
L77.7465 109.63
L79.0563 109
L80.3662 110.68
L81.6761 112.15
L82.9859 108.37
L84.2958 101.44
L85.6056 92.76
L86.9155 95.84
L88.2254 106.55
L89.5352 100.32
L90.8451 89.19
L92.1549 92.97
L93.4648 99.48
L94.7746 89.4
L96.0845 77.36
L97.3944 78.34
L98.7042 65.04
L100.014 94.16
L101.324 90.66
L102.634 98.78
L103.944 102.77
L105.254 99.97
L106.563 88.77
L107.873 93.32
L109.183 89.96
L110.493 89.89
L111.803 83.24
L113.113 80.65
L114.423 85.34
L117.042 66.51
L118.352 73.16
L119.662 72.67
L120.972 80.65
L122.282 83.66
L123.592 92.69
L124.901 91.22
L127.521 101.44
L128.831 102
L130.141 102.35
L131.451 111.52
L132.761 112.85
L134.07 111.52
L135.38 113.62
L136.69 113.41
L138 104.24
L139.31 93.25
L140.62 96.75
L141.93 91.85
L143.239 97.38
L144.549 106.2
L145.859 61.61
L147.169 69.59
L148.479 109.07
L149.789 114.67
L151.099 116.21
L152.408 116.35
L153.718 113.76
L155.028 105.43
L156.338 111.87
L157.648 114.32
L158.958 106.34
L160.268 107.18
L161.577 109.49
L162.887 106.69
L165.507 116.07
L166.817 111.03
L168.127 112.43
L169.437 115.16
L170.746 109.91
L172.056 104.03
L173.366 100.18
L174.676 101.72
L175.986 106.55
L177.296 106.62
L178.606 114.11
L179.915 114.88
L181.225 117.26
L182.535 117.26
L183.845 116.14
L185.155 113.55
L186.465 110.47
L187.775 108.02
L189.085 103.26
L190.394 92.76
L191.704 101.79
L193.014 106.76
L194.324 102.91
L195.634 107.74
L196.944 113.2
L198.254 99.55
L199.563 91.15
L200.873 92.76
L202.183 88.21
L203.493 78.41
L204.803 83.1
L206.113 86.46
L207.423 85.2
L208.732 87.44
L211.352 30.53
L212.662 28.22
L213.972 37.25
L215.282 62.17
L216.592 76.1
L217.901 93.67
L219.211 88
L220.521 75.89
L221.831 65.88
L223.141 53.63
L224.451 50.69
L225.761 64.41
L227.07 74.14
L228.38 58.11
L229.69 60.63
L231 63.99
L232.31 85.41
L233.62 91.36
L234.93 88.7
L236.239 65.46
L237.549 50.34
L238.859 60.63
L240.169 77.08
L241.479 82.89
L242.789 84.5
L244.099 93.39
L245.408 80.02
L246.718 68.26
L248.028 63.5
L249.338 63.85
L250.648 76.52
L251.958 84.92
L253.268 81.63
L254.577 87.44
L255.887 87.79
L258.507 106.13
L259.817 109.28
L261.127 107.95
L262.437 107.6
L263.746 110.96
L265.056 105.15
L266.366 101.72
L267.676 107.88
L268.986 105.85
L270.296 99.27
L271.606 102.56
L272.915 107.25
L274.225 102.63
L275.535 102.56
L276.845 110.47
L278.155 108.79
L279.465 102.7
L280.775 108.16
L282.085 110.61
L283.394 106.97
L284.704 103.96
L286.014 106.83
L287.324 103.75
L288.634 92.48
L289.944 89.47
L291.254 90.03
L292.563 98.15
L293.873 108.86
L295.183 109.28
L296.493 109.56
L297.803 109.56
L299.113 96.61
L300.423 92.27
L301.732 95
L303.042 94.58
L304.352 88.91
L305.662 87.37
L306.972 76.31
L308.282 72.88
L309.592 72.39
L310.901 84.85
L312.211 93.6
L313.521 93.04
L314.831 89.96
L316.141 98.71
L317.451 106.62
L318.761 102
L320.07 102.14
L321.38 99.06
L322.69 97.38
L324 91.29
L324 91.29" style="fill:none;stroke:#ff0000;"/>
   </g>
   <g id="matplotlib.axis_1">
    <g id="xtick_1">
     <g id="line2d_2">
      <defs>
       <path d="
M0 0
L0 -4" id="mcb557df647" style="stroke:#000000;stroke-linecap:butt;stroke-width:0.5;"/>
      </defs>
      <g>
       <use style="stroke:#000000;stroke-linecap:butt;stroke-width:0.5;" x="109.183098592" xlink:href="#mcb557df647" y="144.0"/>
      </g>
     </g>
     <g id="line2d_3">
      <defs>
       <path d="
M0 0
L0 4" id="mdad270ee8e" style="stroke:#000000;stroke-linecap:butt;stroke-width:0.5;"/>
      </defs>
      <g>
       <use style="stroke:#000000;stroke-linecap:butt;stroke-width:0.5;" x="109.183098592" xlink:href="#mdad270ee8e" y="18.0"/>
      </g>
     </g>
     <g id="text_1">
      <!-- 50 -->
      <defs>
       <path d="
M31.7812 66.4062
Q24.1719 66.4062 20.3281 58.9062
Q16.5 51.4219 16.5 36.375
Q16.5 21.3906 20.3281 13.8906
Q24.1719 6.39062 31.7812 6.39062
Q39.4531 6.39062 43.2812 13.8906
Q47.125 21.3906 47.125 36.375
Q47.125 51.4219 43.2812 58.9062
Q39.4531 66.4062 31.7812 66.4062
M31.7812 74.2188
Q44.0469 74.2188 50.5156 64.5156
Q56.9844 54.8281 56.9844 36.375
Q56.9844 17.9688 50.5156 8.26562
Q44.0469 -1.42188 31.7812 -1.42188
Q19.5312 -1.42188 13.0625 8.26562
Q6.59375 17.9688 6.59375 36.375
Q6.59375 54.8281 13.0625 64.5156
Q19.5312 74.2188 31.7812 74.2188" id="BitstreamVeraSans-Roman-30"/>
       <path d="
M10.7969 72.9062
L49.5156 72.9062
L49.5156 64.5938
L19.8281 64.5938
L19.8281 46.7344
Q21.9688 47.4688 24.1094 47.8281
Q26.2656 48.1875 28.4219 48.1875
Q40.625 48.1875 47.75 41.5
Q54.8906 34.8125 54.8906 23.3906
Q54.8906 11.625 47.5625 5.09375
Q40.2344 -1.42188 26.9062 -1.42188
Q22.3125 -1.42188 17.5469 -0.640625
Q12.7969 0.140625 7.71875 1.70312
L7.71875 11.625
Q12.1094 9.23438 16.7969 8.0625
Q21.4844 6.89062 26.7031 6.89062
Q35.1562 6.89062 40.0781 11.3281
Q45.0156 15.7656 45.0156 23.3906
Q45.0156 31 40.0781 35.4375
Q35.1562 39.8906 26.7031 39.8906
Q22.75 39.8906 18.8125 39.0156
Q14.8906 38.1406 10.7969 36.2812
z
" id="BitstreamVeraSans-Roman-35"/>
      </defs>
      <g transform="translate(103.538567342 155.421875)scale(0.1 -0.1)">
       <use xlink:href="#BitstreamVeraSans-Roman-35"/>
       <use x="63.623046875" xlink:href="#BitstreamVeraSans-Roman-30"/>
      </g>
     </g>
    </g>
    <g id="xtick_2">
     <g id="line2d_4">
      <g>
       <use style="stroke:#000000;stroke-linecap:butt;stroke-width:0.5;" x="174.676056338" xlink:href="#mcb557df647" y="144.0"/>
      </g>
     </g>
     <g id="line2d_5">
      <g>
       <use style="stroke:#000000;stroke-linecap:butt;stroke-width:0.5;" x="174.676056338" xlink:href="#mdad270ee8e" y="18.0"/>
      </g>
     </g>
     <g id="text_2">
      <!-- 100 -->
      <defs>
       <path d="
M12.4062 8.29688
L28.5156 8.29688
L28.5156 63.9219
L10.9844 60.4062
L10.9844 69.3906
L28.4219 72.9062
L38.2812 72.9062
L38.2812 8.29688
L54.3906 8.29688
L54.3906 0
L12.4062 0
z
" id="BitstreamVeraSans-Roman-31"/>
      </defs>
      <g transform="translate(166.013556338 155.421875)scale(0.1 -0.1)">
       <use xlink:href="#BitstreamVeraSans-Roman-31"/>
       <use x="63.623046875" xlink:href="#BitstreamVeraSans-Roman-30"/>
       <use x="127.24609375" xlink:href="#BitstreamVeraSans-Roman-30"/>
      </g>
     </g>
    </g>
    <g id="xtick_3">
     <g id="line2d_6">
      <g>
       <use style="stroke:#000000;stroke-linecap:butt;stroke-width:0.5;" x="240.169014085" xlink:href="#mcb557df647" y="144.0"/>
      </g>
     </g>
     <g id="line2d_7">
      <g>
       <use style="stroke:#000000;stroke-linecap:butt;stroke-width:0.5;" x="240.169014085" xlink:href="#mdad270ee8e" y="18.0"/>
      </g>
     </g>
     <g id="text_3">
      <!-- 150 -->
      <g transform="translate(231.506514085 155.421875)scale(0.1 -0.1)">
       <use xlink:href="#BitstreamVeraSans-Roman-31"/>
       <use x="63.623046875" xlink:href="#BitstreamVeraSans-Roman-35"/>
       <use x="127.24609375" xlink:href="#BitstreamVeraSans-Roman-30"/>
      </g>
     </g>
    </g>
    <g id="xtick_4">
     <g id="line2d_8">
      <g>
       <use style="stroke:#000000;stroke-linecap:butt;stroke-width:0.5;" x="305.661971831" xlink:href="#mcb557df647" y="144.0"/>
      </g>
     </g>
     <g id="line2d_9">
      <g>
       <use style="stroke:#000000;stroke-linecap:butt;stroke-width:0.5;" x="305.661971831" xlink:href="#mdad270ee8e" y="18.0"/>
      </g>
     </g>
     <g id="text_4">
      <!-- 200 -->
      <defs>
       <path d="
M19.1875 8.29688
L53.6094 8.29688
L53.6094 0
L7.32812 0
L7.32812 8.29688
Q12.9375 14.1094 22.625 23.8906
Q32.3281 33.6875 34.8125 36.5312
Q39.5469 41.8438 41.4219 45.5312
Q43.3125 49.2188 43.3125 52.7812
Q43.3125 58.5938 39.2344 62.25
Q35.1562 65.9219 28.6094 65.9219
Q23.9688 65.9219 18.8125 64.3125
Q13.6719 62.7031 7.8125 59.4219
L7.8125 69.3906
Q13.7656 71.7812 18.9375 73
Q24.125 74.2188 28.4219 74.2188
Q39.75 74.2188 46.4844 68.5469
Q53.2188 62.8906 53.2188 53.4219
Q53.2188 48.9219 51.5312 44.8906
Q49.8594 40.875 45.4062 35.4062
Q44.1875 33.9844 37.6406 27.2188
Q31.1094 20.4531 19.1875 8.29688" id="BitstreamVeraSans-Roman-32"/>
      </defs>
      <g transform="translate(296.816659331 155.421875)scale(0.1 -0.1)">
       <use xlink:href="#BitstreamVeraSans-Roman-32"/>
       <use x="63.623046875" xlink:href="#BitstreamVeraSans-Roman-30"/>
       <use x="127.24609375" xlink:href="#BitstreamVeraSans-Roman-30"/>
      </g>
     </g>
    </g>
    <g id="text_5">
     <!-- residue number -->
     <defs>
      <path id="BitstreamVeraSans-Roman-20"/>
      <path d="
M54.8906 33.0156
L54.8906 0
L45.9062 0
L45.9062 32.7188
Q45.9062 40.4844 42.875 44.3281
Q39.8438 48.1875 33.7969 48.1875
Q26.5156 48.1875 22.3125 43.5469
Q18.1094 38.9219 18.1094 30.9062
L18.1094 0
L9.07812 0
L9.07812 54.6875
L18.1094 54.6875
L18.1094 46.1875
Q21.3438 51.125 25.7031 53.5625
Q30.0781 56 35.7969 56
Q45.2188 56 50.0469 50.1719
Q54.8906 44.3438 54.8906 33.0156" id="BitstreamVeraSans-Roman-6e"/>
      <path d="
M52 44.1875
Q55.375 50.25 60.0625 53.125
Q64.75 56 71.0938 56
Q79.6406 56 84.2812 50.0156
Q88.9219 44.0469 88.9219 33.0156
L88.9219 0
L79.8906 0
L79.8906 32.7188
Q79.8906 40.5781 77.0938 44.375
Q74.3125 48.1875 68.6094 48.1875
Q61.625 48.1875 57.5625 43.5469
Q53.5156 38.9219 53.5156 30.9062
L53.5156 0
L44.4844 0
L44.4844 32.7188
Q44.4844 40.625 41.7031 44.4062
Q38.9219 48.1875 33.1094 48.1875
Q26.2188 48.1875 22.1562 43.5312
Q18.1094 38.875 18.1094 30.9062
L18.1094 0
L9.07812 0
L9.07812 54.6875
L18.1094 54.6875
L18.1094 46.1875
Q21.1875 51.2188 25.4844 53.6094
Q29.7812 56 35.6875 56
Q41.6562 56 45.8281 52.9688
Q50 49.9531 52 44.1875" id="BitstreamVeraSans-Roman-6d"/>
      <path d="
M9.42188 54.6875
L18.4062 54.6875
L18.4062 0
L9.42188 0
z

M9.42188 75.9844
L18.4062 75.9844
L18.4062 64.5938
L9.42188 64.5938
z
" id="BitstreamVeraSans-Roman-69"/>
      <path d="
M56.2031 29.5938
L56.2031 25.2031
L14.8906 25.2031
Q15.4844 15.9219 20.4844 11.0625
Q25.4844 6.20312 34.4219 6.20312
Q39.5938 6.20312 44.4531 7.46875
Q49.3125 8.73438 54.1094 11.2812
L54.1094 2.78125
Q49.2656 0.734375 44.1875 -0.34375
Q39.1094 -1.42188 33.8906 -1.42188
Q20.7969 -1.42188 13.1562 6.1875
Q5.51562 13.8125 5.51562 26.8125
Q5.51562 40.2344 12.7656 48.1094
Q20.0156 56 32.3281 56
Q43.3594 56 49.7812 48.8906
Q56.2031 41.7969 56.2031 29.5938
M47.2188 32.2344
Q47.125 39.5938 43.0938 43.9844
Q39.0625 48.3906 32.4219 48.3906
Q24.9062 48.3906 20.3906 44.1406
Q15.875 39.8906 15.1875 32.1719
z
" id="BitstreamVeraSans-Roman-65"/>
      <path d="
M45.4062 46.3906
L45.4062 75.9844
L54.3906 75.9844
L54.3906 0
L45.4062 0
L45.4062 8.20312
Q42.5781 3.32812 38.25 0.953125
Q33.9375 -1.42188 27.875 -1.42188
Q17.9688 -1.42188 11.7344 6.48438
Q5.51562 14.4062 5.51562 27.2969
Q5.51562 40.1875 11.7344 48.0938
Q17.9688 56 27.875 56
Q33.9375 56 38.25 53.625
Q42.5781 51.2656 45.4062 46.3906
M14.7969 27.2969
Q14.7969 17.3906 18.875 11.75
Q22.9531 6.10938 30.0781 6.10938
Q37.2031 6.10938 41.2969 11.75
Q45.4062 17.3906 45.4062 27.2969
Q45.4062 37.2031 41.2969 42.8438
Q37.2031 48.4844 30.0781 48.4844
Q22.9531 48.4844 18.875 42.8438
Q14.7969 37.2031 14.7969 27.2969" id="BitstreamVeraSans-Roman-64"/>
      <path d="
M8.5 21.5781
L8.5 54.6875
L17.4844 54.6875
L17.4844 21.9219
Q17.4844 14.1562 20.5 10.2656
Q23.5312 6.39062 29.5938 6.39062
Q36.8594 6.39062 41.0781 11.0312
Q45.3125 15.6719 45.3125 23.6875
L45.3125 54.6875
L54.2969 54.6875
L54.2969 0
L45.3125 0
L45.3125 8.40625
Q42.0469 3.42188 37.7188 1
Q33.4062 -1.42188 27.6875 -1.42188
Q18.2656 -1.42188 13.375 4.4375
Q8.5 10.2969 8.5 21.5781" id="BitstreamVeraSans-Roman-75"/>
      <path d="
M41.1094 46.2969
Q39.5938 47.1719 37.8125 47.5781
Q36.0312 48 33.8906 48
Q26.2656 48 22.1875 43.0469
Q18.1094 38.0938 18.1094 28.8125
L18.1094 0
L9.07812 0
L9.07812 54.6875
L18.1094 54.6875
L18.1094 46.1875
Q20.9531 51.1719 25.4844 53.5781
Q30.0312 56 36.5312 56
Q37.4531 56 38.5781 55.875
Q39.7031 55.7656 41.0625 55.5156
z
" id="BitstreamVeraSans-Roman-72"/>
      <path d="
M44.2812 53.0781
L44.2812 44.5781
Q40.4844 46.5312 36.375 47.5
Q32.2812 48.4844 27.875 48.4844
Q21.1875 48.4844 17.8438 46.4375
Q14.5 44.3906 14.5 40.2812
Q14.5 37.1562 16.8906 35.375
Q19.2812 33.5938 26.5156 31.9844
L29.5938 31.2969
Q39.1562 29.25 43.1875 25.5156
Q47.2188 21.7812 47.2188 15.0938
Q47.2188 7.46875 41.1875 3.01562
Q35.1562 -1.42188 24.6094 -1.42188
Q20.2188 -1.42188 15.4531 -0.5625
Q10.6875 0.296875 5.42188 2
L5.42188 11.2812
Q10.4062 8.6875 15.2344 7.39062
Q20.0625 6.10938 24.8125 6.10938
Q31.1562 6.10938 34.5625 8.28125
Q37.9844 10.4531 37.9844 14.4062
Q37.9844 18.0625 35.5156 20.0156
Q33.0625 21.9688 24.7031 23.7812
L21.5781 24.5156
Q13.2344 26.2656 9.51562 29.9062
Q5.8125 33.5469 5.8125 39.8906
Q5.8125 47.6094 11.2812 51.7969
Q16.75 56 26.8125 56
Q31.7812 56 36.1719 55.2656
Q40.5781 54.5469 44.2812 53.0781" id="BitstreamVeraSans-Roman-73"/>
      <path d="
M48.6875 27.2969
Q48.6875 37.2031 44.6094 42.8438
Q40.5312 48.4844 33.4062 48.4844
Q26.2656 48.4844 22.1875 42.8438
Q18.1094 37.2031 18.1094 27.2969
Q18.1094 17.3906 22.1875 11.75
Q26.2656 6.10938 33.4062 6.10938
Q40.5312 6.10938 44.6094 11.75
Q48.6875 17.3906 48.6875 27.2969
M18.1094 46.3906
Q20.9531 51.2656 25.2656 53.625
Q29.5938 56 35.5938 56
Q45.5625 56 51.7812 48.0938
Q58.0156 40.1875 58.0156 27.2969
Q58.0156 14.4062 51.7812 6.48438
Q45.5625 -1.42188 35.5938 -1.42188
Q29.5938 -1.42188 25.2656 0.953125
Q20.9531 3.32812 18.1094 8.20312
L18.1094 0
L9.07812 0
L9.07812 75.9844
L18.1094 75.9844
z
" id="BitstreamVeraSans-Roman-62"/>
     </defs>
     <g transform="translate(144.9640625 168.1625)scale(0.1 -0.1)">
      <use xlink:href="#BitstreamVeraSans-Roman-72"/>
      <use x="38.86328125" xlink:href="#BitstreamVeraSans-Roman-65"/>
      <use x="100.38671875" xlink:href="#BitstreamVeraSans-Roman-73"/>
      <use x="152.486328125" xlink:href="#BitstreamVeraSans-Roman-69"/>
      <use x="180.26953125" xlink:href="#BitstreamVeraSans-Roman-64"/>
      <use x="243.74609375" xlink:href="#BitstreamVeraSans-Roman-75"/>
      <use x="307.125" xlink:href="#BitstreamVeraSans-Roman-65"/>
      <use x="368.6484375" xlink:href="#BitstreamVeraSans-Roman-20"/>
      <use x="400.435546875" xlink:href="#BitstreamVeraSans-Roman-6e"/>
      <use x="463.814453125" xlink:href="#BitstreamVeraSans-Roman-75"/>
      <use x="527.193359375" xlink:href="#BitstreamVeraSans-Roman-6d"/>
      <use x="624.60546875" xlink:href="#BitstreamVeraSans-Roman-62"/>
      <use x="688.08203125" xlink:href="#BitstreamVeraSans-Roman-65"/>
      <use x="749.60546875" xlink:href="#BitstreamVeraSans-Roman-72"/>
     </g>
    </g>
   </g>
   <g id="matplotlib.axis_2">
    <g id="ytick_1">
     <g id="line2d_10">
      <defs>
       <path d="
M0 0
L4 0" id="mc8fcea1516" style="stroke:#000000;stroke-linecap:butt;stroke-width:0.5;"/>
      </defs>
      <g>
       <use style="stroke:#000000;stroke-linecap:butt;stroke-width:0.5;" x="45.0" xlink:href="#mc8fcea1516" y="144.0"/>
      </g>
     </g>
     <g id="line2d_11">
      <defs>
       <path d="
M0 0
L-4 0" id="m0d5b0a6425" style="stroke:#000000;stroke-linecap:butt;stroke-width:0.5;"/>
      </defs>
      <g>
       <use style="stroke:#000000;stroke-linecap:butt;stroke-width:0.5;" x="324.0" xlink:href="#m0d5b0a6425" y="144.0"/>
      </g>
     </g>
     <g id="text_6">
      <!-- 0.00 -->
      <defs>
       <path d="
M10.6875 12.4062
L21 12.4062
L21 0
L10.6875 0
z
" id="BitstreamVeraSans-Roman-2e"/>
      </defs>
      <g transform="translate(20.0578125 147.63984375)scale(0.1 -0.1)">
       <use xlink:href="#BitstreamVeraSans-Roman-30"/>
       <use x="63.623046875" xlink:href="#BitstreamVeraSans-Roman-2e"/>
       <use x="95.41015625" xlink:href="#BitstreamVeraSans-Roman-30"/>
       <use x="159.033203125" xlink:href="#BitstreamVeraSans-Roman-30"/>
      </g>
     </g>
    </g>
    <g id="ytick_2">
     <g id="line2d_12">
      <g>
       <use style="stroke:#000000;stroke-linecap:butt;stroke-width:0.5;" x="45.0" xlink:href="#mc8fcea1516" y="130.0"/>
      </g>
     </g>
     <g id="line2d_13">
      <g>
       <use style="stroke:#000000;stroke-linecap:butt;stroke-width:0.5;" x="324.0" xlink:href="#m0d5b0a6425" y="130.0"/>
      </g>
     </g>
     <g id="text_7">
      <!-- 0.02 -->
      <g transform="translate(20.3953125 133.63984375)scale(0.1 -0.1)">
       <use xlink:href="#BitstreamVeraSans-Roman-30"/>
       <use x="63.623046875" xlink:href="#BitstreamVeraSans-Roman-2e"/>
       <use x="95.41015625" xlink:href="#BitstreamVeraSans-Roman-30"/>
       <use x="159.033203125" xlink:href="#BitstreamVeraSans-Roman-32"/>
      </g>
     </g>
    </g>
    <g id="ytick_3">
     <g id="line2d_14">
      <g>
       <use style="stroke:#000000;stroke-linecap:butt;stroke-width:0.5;" x="45.0" xlink:href="#mc8fcea1516" y="116.0"/>
      </g>
     </g>
     <g id="line2d_15">
      <g>
       <use style="stroke:#000000;stroke-linecap:butt;stroke-width:0.5;" x="324.0" xlink:href="#m0d5b0a6425" y="116.0"/>
      </g>
     </g>
     <g id="text_8">
      <!-- 0.04 -->
      <defs>
       <path d="
M37.7969 64.3125
L12.8906 25.3906
L37.7969 25.3906
z

M35.2031 72.9062
L47.6094 72.9062
L47.6094 25.3906
L58.0156 25.3906
L58.0156 17.1875
L47.6094 17.1875
L47.6094 0
L37.7969 0
L37.7969 17.1875
L4.89062 17.1875
L4.89062 26.7031
z
" id="BitstreamVeraSans-Roman-34"/>
      </defs>
      <g transform="translate(19.9546875 119.63984375)scale(0.1 -0.1)">
       <use xlink:href="#BitstreamVeraSans-Roman-30"/>
       <use x="63.623046875" xlink:href="#BitstreamVeraSans-Roman-2e"/>
       <use x="95.41015625" xlink:href="#BitstreamVeraSans-Roman-30"/>
       <use x="159.033203125" xlink:href="#BitstreamVeraSans-Roman-34"/>
      </g>
     </g>
    </g>
    <g id="ytick_4">
     <g id="line2d_16">
      <g>
       <use style="stroke:#000000;stroke-linecap:butt;stroke-width:0.5;" x="45.0" xlink:href="#mc8fcea1516" y="102.0"/>
      </g>
     </g>
     <g id="line2d_17">
      <g>
       <use style="stroke:#000000;stroke-linecap:butt;stroke-width:0.5;" x="324.0" xlink:href="#m0d5b0a6425" y="102.0"/>
      </g>
     </g>
     <g id="text_9">
      <!-- 0.06 -->
      <defs>
       <path d="
M33.0156 40.375
Q26.375 40.375 22.4844 35.8281
Q18.6094 31.2969 18.6094 23.3906
Q18.6094 15.5312 22.4844 10.9531
Q26.375 6.39062 33.0156 6.39062
Q39.6562 6.39062 43.5312 10.9531
Q47.4062 15.5312 47.4062 23.3906
Q47.4062 31.2969 43.5312 35.8281
Q39.6562 40.375 33.0156 40.375
M52.5938 71.2969
L52.5938 62.3125
Q48.875 64.0625 45.0938 64.9844
Q41.3125 65.9219 37.5938 65.9219
Q27.8281 65.9219 22.6719 59.3281
Q17.5312 52.7344 16.7969 39.4062
Q19.6719 43.6562 24.0156 45.9219
Q28.375 48.1875 33.5938 48.1875
Q44.5781 48.1875 50.9531 41.5156
Q57.3281 34.8594 57.3281 23.3906
Q57.3281 12.1562 50.6875 5.35938
Q44.0469 -1.42188 33.0156 -1.42188
Q20.3594 -1.42188 13.6719 8.26562
Q6.98438 17.9688 6.98438 36.375
Q6.98438 53.6562 15.1875 63.9375
Q23.3906 74.2188 37.2031 74.2188
Q40.9219 74.2188 44.7031 73.4844
Q48.4844 72.75 52.5938 71.2969" id="BitstreamVeraSans-Roman-36"/>
      </defs>
      <g transform="translate(20.0234375 105.63984375)scale(0.1 -0.1)">
       <use xlink:href="#BitstreamVeraSans-Roman-30"/>
       <use x="63.623046875" xlink:href="#BitstreamVeraSans-Roman-2e"/>
       <use x="95.41015625" xlink:href="#BitstreamVeraSans-Roman-30"/>
       <use x="159.033203125" xlink:href="#BitstreamVeraSans-Roman-36"/>
      </g>
     </g>
    </g>
    <g id="ytick_5">
     <g id="line2d_18">
      <g>
       <use style="stroke:#000000;stroke-linecap:butt;stroke-width:0.5;" x="45.0" xlink:href="#mc8fcea1516" y="88.0"/>
      </g>
     </g>
     <g id="line2d_19">
      <g>
       <use style="stroke:#000000;stroke-linecap:butt;stroke-width:0.5;" x="324.0" xlink:href="#m0d5b0a6425" y="88.0"/>
      </g>
     </g>
     <g id="text_10">
      <!-- 0.08 -->
      <defs>
       <path d="
M31.7812 34.625
Q24.75 34.625 20.7188 30.8594
Q16.7031 27.0938 16.7031 20.5156
Q16.7031 13.9219 20.7188 10.1562
Q24.75 6.39062 31.7812 6.39062
Q38.8125 6.39062 42.8594 10.1719
Q46.9219 13.9688 46.9219 20.5156
Q46.9219 27.0938 42.8906 30.8594
Q38.875 34.625 31.7812 34.625
M21.9219 38.8125
Q15.5781 40.375 12.0312 44.7188
Q8.5 49.0781 8.5 55.3281
Q8.5 64.0625 14.7188 69.1406
Q20.9531 74.2188 31.7812 74.2188
Q42.6719 74.2188 48.875 69.1406
Q55.0781 64.0625 55.0781 55.3281
Q55.0781 49.0781 51.5312 44.7188
Q48 40.375 41.7031 38.8125
Q48.8281 37.1562 52.7969 32.3125
Q56.7812 27.4844 56.7812 20.5156
Q56.7812 9.90625 50.3125 4.23438
Q43.8438 -1.42188 31.7812 -1.42188
Q19.7344 -1.42188 13.25 4.23438
Q6.78125 9.90625 6.78125 20.5156
Q6.78125 27.4844 10.7812 32.3125
Q14.7969 37.1562 21.9219 38.8125
M18.3125 54.3906
Q18.3125 48.7344 21.8438 45.5625
Q25.3906 42.3906 31.7812 42.3906
Q38.1406 42.3906 41.7188 45.5625
Q45.3125 48.7344 45.3125 54.3906
Q45.3125 60.0625 41.7188 63.2344
Q38.1406 66.4062 31.7812 66.4062
Q25.3906 66.4062 21.8438 63.2344
Q18.3125 60.0625 18.3125 54.3906" id="BitstreamVeraSans-Roman-38"/>
      </defs>
      <g transform="translate(20.078125 91.63984375)scale(0.1 -0.1)">
       <use xlink:href="#BitstreamVeraSans-Roman-30"/>
       <use x="63.623046875" xlink:href="#BitstreamVeraSans-Roman-2e"/>
       <use x="95.41015625" xlink:href="#BitstreamVeraSans-Roman-30"/>
       <use x="159.033203125" xlink:href="#BitstreamVeraSans-Roman-38"/>
      </g>
     </g>
    </g>
    <g id="ytick_6">
     <g id="line2d_20">
      <g>
       <use style="stroke:#000000;stroke-linecap:butt;stroke-width:0.5;" x="45.0" xlink:href="#mc8fcea1516" y="74.0"/>
      </g>
     </g>
     <g id="line2d_21">
      <g>
       <use style="stroke:#000000;stroke-linecap:butt;stroke-width:0.5;" x="324.0" xlink:href="#m0d5b0a6425" y="74.0"/>
      </g>
     </g>
     <g id="text_11">
      <!-- 0.10 -->
      <g transform="translate(20.0578125 77.63984375)scale(0.1 -0.1)">
       <use xlink:href="#BitstreamVeraSans-Roman-30"/>
       <use x="63.623046875" xlink:href="#BitstreamVeraSans-Roman-2e"/>
       <use x="95.41015625" xlink:href="#BitstreamVeraSans-Roman-31"/>
       <use x="159.033203125" xlink:href="#BitstreamVeraSans-Roman-30"/>
      </g>
     </g>
    </g>
    <g id="ytick_7">
     <g id="line2d_22">
      <g>
       <use style="stroke:#000000;stroke-linecap:butt;stroke-width:0.5;" x="45.0" xlink:href="#mc8fcea1516" y="60.0"/>
      </g>
     </g>
     <g id="line2d_23">
      <g>
       <use style="stroke:#000000;stroke-linecap:butt;stroke-width:0.5;" x="324.0" xlink:href="#m0d5b0a6425" y="60.0"/>
      </g>
     </g>
     <g id="text_12">
      <!-- 0.12 -->
      <g transform="translate(20.3953125 63.63984375)scale(0.1 -0.1)">
       <use xlink:href="#BitstreamVeraSans-Roman-30"/>
       <use x="63.623046875" xlink:href="#BitstreamVeraSans-Roman-2e"/>
       <use x="95.41015625" xlink:href="#BitstreamVeraSans-Roman-31"/>
       <use x="159.033203125" xlink:href="#BitstreamVeraSans-Roman-32"/>
      </g>
     </g>
    </g>
    <g id="ytick_8">
     <g id="line2d_24">
      <g>
       <use style="stroke:#000000;stroke-linecap:butt;stroke-width:0.5;" x="45.0" xlink:href="#mc8fcea1516" y="46.0"/>
      </g>
     </g>
     <g id="line2d_25">
      <g>
       <use style="stroke:#000000;stroke-linecap:butt;stroke-width:0.5;" x="324.0" xlink:href="#m0d5b0a6425" y="46.0"/>
      </g>
     </g>
     <g id="text_13">
      <!-- 0.14 -->
      <g transform="translate(19.9546875 49.63984375)scale(0.1 -0.1)">
       <use xlink:href="#BitstreamVeraSans-Roman-30"/>
       <use x="63.623046875" xlink:href="#BitstreamVeraSans-Roman-2e"/>
       <use x="95.41015625" xlink:href="#BitstreamVeraSans-Roman-31"/>
       <use x="159.033203125" xlink:href="#BitstreamVeraSans-Roman-34"/>
      </g>
     </g>
    </g>
    <g id="ytick_9">
     <g id="line2d_26">
      <g>
       <use style="stroke:#000000;stroke-linecap:butt;stroke-width:0.5;" x="45.0" xlink:href="#mc8fcea1516" y="32.0"/>
      </g>
     </g>
     <g id="line2d_27">
      <g>
       <use style="stroke:#000000;stroke-linecap:butt;stroke-width:0.5;" x="324.0" xlink:href="#m0d5b0a6425" y="32.0"/>
      </g>
     </g>
     <g id="text_14">
      <!-- 0.16 -->
      <g transform="translate(20.0234375 35.63984375)scale(0.1 -0.1)">
       <use xlink:href="#BitstreamVeraSans-Roman-30"/>
       <use x="63.623046875" xlink:href="#BitstreamVeraSans-Roman-2e"/>
       <use x="95.41015625" xlink:href="#BitstreamVeraSans-Roman-31"/>
       <use x="159.033203125" xlink:href="#BitstreamVeraSans-Roman-36"/>
      </g>
     </g>
    </g>
    <g id="ytick_10">
     <g id="line2d_28">
      <g>
       <use style="stroke:#000000;stroke-linecap:butt;stroke-width:0.5;" x="45.0" xlink:href="#mc8fcea1516" y="18.0"/>
      </g>
     </g>
     <g id="line2d_29">
      <g>
       <use style="stroke:#000000;stroke-linecap:butt;stroke-width:0.5;" x="324.0" xlink:href="#m0d5b0a6425" y="18.0"/>
      </g>
     </g>
     <g id="text_15">
      <!-- 0.18 -->
      <g transform="translate(20.078125 21.63984375)scale(0.1 -0.1)">
       <use xlink:href="#BitstreamVeraSans-Roman-30"/>
       <use x="63.623046875" xlink:href="#BitstreamVeraSans-Roman-2e"/>
       <use x="95.41015625" xlink:href="#BitstreamVeraSans-Roman-31"/>
       <use x="159.033203125" xlink:href="#BitstreamVeraSans-Roman-38"/>
      </g>
     </g>
    </g>
    <g id="text_16">
     <!-- C$_\alpha$ RMSF (nm) -->
     <defs>
      <path d="
M20.125 -1.125
Q15.375 -1.125 11.6875 1.125
Q8.01562 3.375 6 7.17188
Q4 10.9844 4 15.8281
Q4 22.6094 7.78125 29.25
Q11.5781 35.8906 17.8438 40.0312
Q24.125 44.1875 31 44.1875
Q36.0781 44.1875 39.9375 41.5312
Q43.7969 38.875 45.7969 34.4531
Q47.7969 30.0312 47.7969 25
L47.9062 18.3125
Q51.3125 23.0469 53.6875 28.1406
Q56.0625 33.25 57.3281 38.7188
Q57.5156 39.3125 58.1094 39.3125
L59.2812 39.3125
Q60.2031 39.3125 60.2031 38.375
Q60.2031 38.2812 60.1094 38.0938
Q58.9375 33.5 57.1719 29.2656
Q55.4219 25.0469 53.0469 21.0938
Q50.6875 17.1406 47.9062 13.9219
Q47.9062 1.51562 50.7812 1.51562
Q52.6406 1.51562 53.8281 2.60938
Q55.0312 3.71875 55.9375 5.32812
Q56.8438 6.9375 57.0781 6.98438
L58.2969 6.98438
Q59.0781 6.98438 59.0781 6
Q59.0781 3.51562 56.2188 1.1875
Q53.375 -1.125 50.5938 -1.125
Q46.9688 -1.125 44.5781 1.21875
Q42.1875 3.5625 41.3125 7.32812
Q36.625 3.32812 31.1562 1.09375
Q25.6875 -1.125 20.125 -1.125
M20.3125 1.51562
Q31 1.51562 40.8281 10.2969
Q40.7656 10.8906 40.6719 11.7344
Q40.5781 12.5938 40.5781 12.7031
L40.5781 23.4844
Q40.5781 41.6094 30.8125 41.6094
Q24.9531 41.6094 20.5469 36.5938
Q16.1562 31.5938 13.9375 24.625
Q11.7188 17.6719 11.7188 11.9219
Q11.7188 7.5625 13.9375 4.53125
Q16.1562 1.51562 20.3125 1.51562" id="Cmmi10-ae"/>
      <path d="
M9.8125 72.9062
L24.5156 72.9062
L43.1094 23.2969
L61.8125 72.9062
L76.5156 72.9062
L76.5156 0
L66.8906 0
L66.8906 64.0156
L48.0938 14.0156
L38.1875 14.0156
L19.3906 64.0156
L19.3906 0
L9.8125 0
z
" id="BitstreamVeraSans-Roman-4d"/>
      <path d="
M8.01562 75.875
L15.8281 75.875
Q23.1406 64.3594 26.7812 53.3125
Q30.4219 42.2812 30.4219 31.3906
Q30.4219 20.4531 26.7812 9.375
Q23.1406 -1.70312 15.8281 -13.1875
L8.01562 -13.1875
Q14.5 -2 17.7031 9.0625
Q20.9062 20.125 20.9062 31.3906
Q20.9062 42.6719 17.7031 53.6562
Q14.5 64.6562 8.01562 75.875" id="BitstreamVeraSans-Roman-29"/>
      <path d="
M31 75.875
Q24.4688 64.6562 21.2812 53.6562
Q18.1094 42.6719 18.1094 31.3906
Q18.1094 20.125 21.3125 9.0625
Q24.5156 -2 31 -13.1875
L23.1875 -13.1875
Q15.875 -1.70312 12.2344 9.375
Q8.59375 20.4531 8.59375 31.3906
Q8.59375 42.2812 12.2031 53.3125
Q15.8281 64.3594 23.1875 75.875
z
" id="BitstreamVeraSans-Roman-28"/>
      <path d="
M9.8125 72.9062
L51.7031 72.9062
L51.7031 64.5938
L19.6719 64.5938
L19.6719 43.1094
L48.5781 43.1094
L48.5781 34.8125
L19.6719 34.8125
L19.6719 0
L9.8125 0
z
" id="BitstreamVeraSans-Roman-46"/>
      <path d="
M44.3906 34.1875
Q47.5625 33.1094 50.5625 29.5938
Q53.5625 26.0781 56.5938 19.9219
L66.6094 0
L56 0
L46.6875 18.7031
Q43.0625 26.0312 39.6719 28.4219
Q36.2812 30.8125 30.4219 30.8125
L19.6719 30.8125
L19.6719 0
L9.8125 0
L9.8125 72.9062
L32.0781 72.9062
Q44.5781 72.9062 50.7344 67.6719
Q56.8906 62.4531 56.8906 51.9062
Q56.8906 45.0156 53.6875 40.4688
Q50.4844 35.9375 44.3906 34.1875
M19.6719 64.7969
L19.6719 38.9219
L32.0781 38.9219
Q39.2031 38.9219 42.8438 42.2188
Q46.4844 45.5156 46.4844 51.9062
Q46.4844 58.2969 42.8438 61.5469
Q39.2031 64.7969 32.0781 64.7969
z
" id="BitstreamVeraSans-Roman-52"/>
      <path d="
M53.5156 70.5156
L53.5156 60.8906
Q47.9062 63.5781 42.9219 64.8906
Q37.9375 66.2188 33.2969 66.2188
Q25.25 66.2188 20.875 63.0938
Q16.5 59.9688 16.5 54.2031
Q16.5 49.3594 19.4062 46.8906
Q22.3125 44.4375 30.4219 42.9219
L36.375 41.7031
Q47.4062 39.5938 52.6562 34.2969
Q57.9062 29 57.9062 20.125
Q57.9062 9.51562 50.7969 4.04688
Q43.7031 -1.42188 29.9844 -1.42188
Q24.8125 -1.42188 18.9688 -0.25
Q13.1406 0.921875 6.89062 3.21875
L6.89062 13.375
Q12.8906 10.0156 18.6562 8.29688
Q24.4219 6.59375 29.9844 6.59375
Q38.4219 6.59375 43.0156 9.90625
Q47.6094 13.2344 47.6094 19.3906
Q47.6094 24.75 44.3125 27.7812
Q41.0156 30.8125 33.5 32.3281
L27.4844 33.5
Q16.4531 35.6875 11.5156 40.375
Q6.59375 45.0625 6.59375 53.4219
Q6.59375 63.0938 13.4062 68.6562
Q20.2188 74.2188 32.1719 74.2188
Q37.3125 74.2188 42.625 73.2812
Q47.9531 72.3594 53.5156 70.5156" id="BitstreamVeraSans-Roman-53"/>
      <path d="
M64.4062 67.2812
L64.4062 56.8906
Q59.4219 61.5312 53.7812 63.8125
Q48.1406 66.1094 41.7969 66.1094
Q29.2969 66.1094 22.6562 58.4688
Q16.0156 50.8281 16.0156 36.375
Q16.0156 21.9688 22.6562 14.3281
Q29.2969 6.6875 41.7969 6.6875
Q48.1406 6.6875 53.7812 8.98438
Q59.4219 11.2812 64.4062 15.9219
L64.4062 5.60938
Q59.2344 2.09375 53.4375 0.328125
Q47.6562 -1.42188 41.2188 -1.42188
Q24.6562 -1.42188 15.125 8.70312
Q5.60938 18.8438 5.60938 36.375
Q5.60938 53.9531 15.125 64.0781
Q24.6562 74.2188 41.2188 74.2188
Q47.75 74.2188 53.5312 72.4844
Q59.3281 70.75 64.4062 67.2812" id="BitstreamVeraSans-Roman-43"/>
     </defs>
     <g transform="translate(14.9546875 116.65)rotate(-90.0)scale(0.1 -0.1)">
      <use transform="translate(0.0 27.125)" xlink:href="#BitstreamVeraSans-Roman-43"/>
      <use transform="translate(69.82421875 1.615625)scale(0.7)" xlink:href="#Cmmi10-ae"/>
      <use transform="translate(133.740234375 27.125)" xlink:href="#BitstreamVeraSans-Roman-20"/>
      <use transform="translate(165.52734375 27.125)" xlink:href="#BitstreamVeraSans-Roman-52"/>
      <use transform="translate(235.009765625 27.125)" xlink:href="#BitstreamVeraSans-Roman-4d"/>
      <use transform="translate(321.2890625 27.125)" xlink:href="#BitstreamVeraSans-Roman-53"/>
      <use transform="translate(384.765625 27.125)" xlink:href="#BitstreamVeraSans-Roman-46"/>
      <use transform="translate(442.28515625 27.125)" xlink:href="#BitstreamVeraSans-Roman-20"/>
      <use transform="translate(474.072265625 27.125)" xlink:href="#BitstreamVeraSans-Roman-28"/>
      <use transform="translate(513.0859375 27.125)" xlink:href="#BitstreamVeraSans-Roman-6e"/>
      <use transform="translate(576.46484375 27.125)" xlink:href="#BitstreamVeraSans-Roman-6d"/>
      <use transform="translate(673.876953125 27.125)" xlink:href="#BitstreamVeraSans-Roman-29"/>
     </g>
    </g>
   </g>
   <g id="patch_3">
    <path d="
M45 18
L324 18" style="fill:none;stroke:#000000;"/>
   </g>
   <g id="patch_4">
    <path d="
M324 144
L324 18" style="fill:none;stroke:#000000;"/>
   </g>
   <g id="patch_5">
    <path d="
M45 144
L324 144" style="fill:none;stroke:#000000;"/>
   </g>
   <g id="patch_6">
    <path d="
M45 144
L45 18" style="fill:none;stroke:#000000;"/>
   </g>
  </g>
 </g>
 <defs>
  <clipPath id="p4e9530b0aa">
   <rect height="126.0" width="279.0" x="45.0" y="18.0"/>
  </clipPath>
 </defs>
</svg>
