<?xml version="1.0" encoding="utf-8" standalone="no"?>
<!DOCTYPE svg PUBLIC "-//W3C//DTD SVG 1.1//EN"
  "http://www.w3.org/Graphics/SVG/1.1/DTD/svg11.dtd">
<!-- Created with matplotlib (http://matplotlib.org/) -->
<svg height="180pt" version="1.1" viewBox="0 0 360 180" width="360pt" xmlns="http://www.w3.org/2000/svg" xmlns:xlink="http://www.w3.org/1999/xlink">
 <defs>
  <style type="text/css">
*{stroke-linecap:square;stroke-linejoin:round;}
  </style>
 </defs>
 <g id="figure_1">
  <g id="patch_1">
   <path d="
M0 180
L360 180
L360 0
L0 0
z
" style="fill:#ffffff;"/>
  </g>
  <g id="axes_1">
   <g id="patch_2">
    <path d="
M45 144
L324 144
L324 18
L45 18
z
" style="fill:#ffffff;"/>
   </g>
   <g id="PolyCollection_1">
    <defs>
     <path d="
M45 -36
L45 -36.4078
L47.79 -77.3506
L50.58 -84.2156
L53.37 -93.6238
L56.16 -102.555
L58.95 -105.505
L61.74 -107.886
L64.53 -109.113
L67.32 -103.681
L70.11 -114.898
L72.9 -108.643
L75.69 -115.315
L78.48 -118.141
L81.27 -119.574
L84.06 -122.55
L86.85 -126.828
L89.64 -129.429
L92.43 -118.577
L95.22 -113.515
L98.01 -123.844
L100.8 -127.53
L103.59 -135.196
L106.38 -130.392
L109.17 -125.458
L111.96 -119.316
L114.75 -122.853
L117.54 -119.96
L120.33 -125.53
L123.12 -125.836
L125.91 -131.816
L128.7 -139.656
L131.49 -141.117
L134.28 -140.522
L137.07 -140.425
L139.86 -138.896
L142.65 -141.053
L145.44 -144.497
L148.23 -141.008
L151.02 -138.36
L153.81 -138.398
L156.6 -139.325
L159.39 -136.579
L162.18 -141.94
L164.97 -145.12
L167.76 -142.13
L170.55 -136.495
L173.34 -133.63
L176.13 -134.156
L178.92 -136.712
L181.71 -129.822
L184.5 -126.433
L187.29 -128.802
L190.08 -129.301
L192.87 -129.382
L195.66 -127.375
L198.45 -120.967
L201.24 -120.296
L204.03 -114.394
L206.82 -121.373
L209.61 -119.949
L212.4 -118.895
L215.19 -125.369
L217.98 -126.993
L220.77 -124.056
L223.56 -125.467
L226.35 -125.043
L229.14 -134.272
L231.93 -131.148
L234.72 -134.958
L237.51 -132.882
L240.3 -132.902
L243.09 -138.838
L245.88 -138.784
L248.67 -140.915
L251.46 -143.032
L254.25 -143.219
L257.04 -143.613
L259.83 -142.359
L262.62 -139.497
L265.41 -142.439
L268.2 -145.829
L270.99 -144.358
L273.78 -147.814
L276.57 -143.609
L279.36 -152.673
L282.15 -150.833
L284.94 -148.488
L287.73 -145.619
L290.52 -149.009
L293.31 -147.12
L296.1 -140.974
L298.89 -136.189
L301.68 -133.036
L304.47 -133.057
L307.26 -129.647
L310.05 -135.829
L312.84 -135.289
L315.63 -129.167
L318.42 -133.388
L321.21 -135.525
L324 -136.93
L324 -36
L324 -36
L321.21 -36
L318.42 -36
L315.63 -36
L312.84 -36
L310.05 -36
L307.26 -36
L304.47 -36
L301.68 -36
L298.89 -36
L296.1 -36
L293.31 -36
L290.52 -36
L287.73 -36
L284.94 -36
L282.15 -36
L279.36 -36
L276.57 -36
L273.78 -36
L270.99 -36
L268.2 -36
L265.41 -36
L262.62 -36
L259.83 -36
L257.04 -36
L254.25 -36
L251.46 -36
L248.67 -36
L245.88 -36
L243.09 -36
L240.3 -36
L237.51 -36
L234.72 -36
L231.93 -36
L229.14 -36
L226.35 -36
L223.56 -36
L220.77 -36
L217.98 -36
L215.19 -36
L212.4 -36
L209.61 -36
L206.82 -36
L204.03 -36
L201.24 -36
L198.45 -36
L195.66 -36
L192.87 -36
L190.08 -36
L187.29 -36
L184.5 -36
L181.71 -36
L178.92 -36
L176.13 -36
L173.34 -36
L170.55 -36
L167.76 -36
L164.97 -36
L162.18 -36
L159.39 -36
L156.6 -36
L153.81 -36
L151.02 -36
L148.23 -36
L145.44 -36
L142.65 -36
L139.86 -36
L137.07 -36
L134.28 -36
L131.49 -36
L128.7 -36
L125.91 -36
L123.12 -36
L120.33 -36
L117.54 -36
L114.75 -36
L111.96 -36
L109.17 -36
L106.38 -36
L103.59 -36
L100.8 -36
L98.01 -36
L95.22 -36
L92.43 -36
L89.64 -36
L86.85 -36
L84.06 -36
L81.27 -36
L78.48 -36
L75.69 -36
L72.9 -36
L70.11 -36
L67.32 -36
L64.53 -36
L61.74 -36
L58.95 -36
L56.16 -36
L53.37 -36
L50.58 -36
L47.79 -36
L45 -36
z
" id="C0_0_eae708812e"/>
    </defs>
    <g clip-path="url(#p4e9530b0aa)">
     <use style="fill:#0000ff;opacity:0.1;stroke:#0000ff;stroke-linecap:butt;" x="0" xlink:href="#C0_0_eae708812e" y="180.0"/>
    </g>
   </g>
   <g id="line2d_1">
    <path clip-path="url(#p4e9530b0aa)" d="
M45 143.592
L47.79 102.649
L50.58 95.7844
L53.37 86.3762
L56.16 77.4452
L58.95 74.4953
L61.74 72.1136
L64.53 70.8868
L67.32 76.3195
L70.11 65.1023
L72.9 71.357
L75.69 64.685
L78.48 61.8592
L81.27 60.4255
L84.06 57.4501
L86.85 53.1723
L89.64 50.5712
L92.43 61.4233
L95.22 66.4851
L98.01 56.1556
L100.8 52.4705
L103.59 44.8042
L106.38 49.6077
L109.17 54.5417
L111.96 60.6843
L114.75 57.1466
L117.54 60.0399
L120.33 54.4704
L123.12 54.1637
L125.91 48.1844
L128.7 40.3443
L131.49 38.8828
L134.28 39.4778
L137.07 39.5751
L139.86 41.1043
L142.65 38.947
L145.44 35.5028
L148.23 38.9916
L151.02 41.6398
L153.81 41.6023
L156.6 40.6754
L159.39 43.421
L162.18 38.06
L164.97 34.8801
L167.76 37.87
L170.55 43.5052
L173.34 46.3697
L176.13 45.8436
L178.92 43.288
L181.71 50.1782
L184.5 53.5667
L187.29 51.1982
L190.08 50.699
L192.87 50.6176
L195.66 52.6246
L198.45 59.0334
L201.24 59.7036
L204.03 65.6062
L206.82 58.6269
L209.61 60.0505
L212.4 61.1048
L215.19 54.6306
L217.98 53.0071
L220.77 55.9444
L223.56 54.5332
L226.35 54.9568
L229.14 45.7279
L231.93 48.8524
L234.72 45.0422
L237.51 47.1184
L240.3 47.0977
L243.09 41.1624
L245.88 41.2157
L248.67 39.0853
L251.46 36.9677
L254.25 36.7805
L257.04 36.3871
L259.83 37.6407
L262.62 40.5031
L265.41 37.5612
L268.2 34.1706
L270.99 35.6424
L273.78 32.1861
L276.57 36.391
L279.36 27.3272
L282.15 29.1672
L284.94 31.5121
L287.73 34.3809
L290.52 30.9912
L293.31 32.8799
L296.1 39.0262
L298.89 43.8109
L301.68 46.9641
L304.47 46.9434
L307.26 50.3528
L310.05 44.171
L312.84 44.7111
L315.63 50.8327
L318.42 46.6123
L321.21 44.475
L324 43.0703" style="fill:none;stroke:#0000ff;"/>
   </g>
   <g id="matplotlib.axis_1">
    <g id="xtick_1">
     <g id="line2d_2">
      <defs>
       <path d="
M0 0
L0 -4" id="mcb557df647" style="stroke:#000000;stroke-linecap:butt;stroke-width:0.5;"/>
      </defs>
      <g>
       <use style="stroke:#000000;stroke-linecap:butt;stroke-width:0.5;" x="45.0" xlink:href="#mcb557df647" y="144.0"/>
      </g>
     </g>
     <g id="line2d_3">
      <defs>
       <path d="
M0 0
L0 4" id="mdad270ee8e" style="stroke:#000000;stroke-linecap:butt;stroke-width:0.5;"/>
      </defs>
      <g>
       <use style="stroke:#000000;stroke-linecap:butt;stroke-width:0.5;" x="45.0" xlink:href="#mdad270ee8e" y="18.0"/>
      </g>
     </g>
     <g id="text_1">
      <!-- 0 -->
      <defs>
       <path d="
M31.7812 66.4062
Q24.1719 66.4062 20.3281 58.9062
Q16.5 51.4219 16.5 36.375
Q16.5 21.3906 20.3281 13.8906
Q24.1719 6.39062 31.7812 6.39062
Q39.4531 6.39062 43.2812 13.8906
Q47.125 21.3906 47.125 36.375
Q47.125 51.4219 43.2812 58.9062
Q39.4531 66.4062 31.7812 66.4062
M31.7812 74.2188
Q44.0469 74.2188 50.5156 64.5156
Q56.9844 54.8281 56.9844 36.375
Q56.9844 17.9688 50.5156 8.26562
Q44.0469 -1.42188 31.7812 -1.42188
Q19.5312 -1.42188 13.0625 8.26562
Q6.59375 17.9688 6.59375 36.375
Q6.59375 54.8281 13.0625 64.5156
Q19.5312 74.2188 31.7812 74.2188" id="BitstreamVeraSans-Roman-30"/>
      </defs>
      <g transform="translate(42.48046875 155.421875)scale(0.1 -0.1)">
       <use xlink:href="#BitstreamVeraSans-Roman-30"/>
      </g>
     </g>
    </g>
    <g id="xtick_2">
     <g id="line2d_4">
      <g>
       <use style="stroke:#000000;stroke-linecap:butt;stroke-width:0.5;" x="100.8" xlink:href="#mcb557df647" y="144.0"/>
      </g>
     </g>
     <g id="line2d_5">
      <g>
       <use style="stroke:#000000;stroke-linecap:butt;stroke-width:0.5;" x="100.8" xlink:href="#mdad270ee8e" y="18.0"/>
      </g>
     </g>
     <g id="text_2">
      <!-- 20 -->
      <defs>
       <path d="
M19.1875 8.29688
L53.6094 8.29688
L53.6094 0
L7.32812 0
L7.32812 8.29688
Q12.9375 14.1094 22.625 23.8906
Q32.3281 33.6875 34.8125 36.5312
Q39.5469 41.8438 41.4219 45.5312
Q43.3125 49.2188 43.3125 52.7812
Q43.3125 58.5938 39.2344 62.25
Q35.1562 65.9219 28.6094 65.9219
Q23.9688 65.9219 18.8125 64.3125
Q13.6719 62.7031 7.8125 59.4219
L7.8125 69.3906
Q13.7656 71.7812 18.9375 73
Q24.125 74.2188 28.4219 74.2188
Q39.75 74.2188 46.4844 68.5469
Q53.2188 62.8906 53.2188 53.4219
Q53.2188 48.9219 51.5312 44.8906
Q49.8594 40.875 45.4062 35.4062
Q44.1875 33.9844 37.6406 27.2188
Q31.1094 20.4531 19.1875 8.29688" id="BitstreamVeraSans-Roman-32"/>
      </defs>
      <g transform="translate(95.1359375 155.421875)scale(0.1 -0.1)">
       <use xlink:href="#BitstreamVeraSans-Roman-32"/>
       <use x="63.623046875" xlink:href="#BitstreamVeraSans-Roman-30"/>
      </g>
     </g>
    </g>
    <g id="xtick_3">
     <g id="line2d_6">
      <g>
       <use style="stroke:#000000;stroke-linecap:butt;stroke-width:0.5;" x="156.6" xlink:href="#mcb557df647" y="144.0"/>
      </g>
     </g>
     <g id="line2d_7">
      <g>
       <use style="stroke:#000000;stroke-linecap:butt;stroke-width:0.5;" x="156.6" xlink:href="#mdad270ee8e" y="18.0"/>
      </g>
     </g>
     <g id="text_3">
      <!-- 40 -->
      <defs>
       <path d="
M37.7969 64.3125
L12.8906 25.3906
L37.7969 25.3906
z

M35.2031 72.9062
L47.6094 72.9062
L47.6094 25.3906
L58.0156 25.3906
L58.0156 17.1875
L47.6094 17.1875
L47.6094 0
L37.7969 0
L37.7969 17.1875
L4.89062 17.1875
L4.89062 26.7031
z
" id="BitstreamVeraSans-Roman-34"/>
      </defs>
      <g transform="translate(150.8140625 155.421875)scale(0.1 -0.1)">
       <use xlink:href="#BitstreamVeraSans-Roman-34"/>
       <use x="63.623046875" xlink:href="#BitstreamVeraSans-Roman-30"/>
      </g>
     </g>
    </g>
    <g id="xtick_4">
     <g id="line2d_8">
      <g>
       <use style="stroke:#000000;stroke-linecap:butt;stroke-width:0.5;" x="212.4" xlink:href="#mcb557df647" y="144.0"/>
      </g>
     </g>
     <g id="line2d_9">
      <g>
       <use style="stroke:#000000;stroke-linecap:butt;stroke-width:0.5;" x="212.4" xlink:href="#mdad270ee8e" y="18.0"/>
      </g>
     </g>
     <g id="text_4">
      <!-- 60 -->
      <defs>
       <path d="
M33.0156 40.375
Q26.375 40.375 22.4844 35.8281
Q18.6094 31.2969 18.6094 23.3906
Q18.6094 15.5312 22.4844 10.9531
Q26.375 6.39062 33.0156 6.39062
Q39.6562 6.39062 43.5312 10.9531
Q47.4062 15.5312 47.4062 23.3906
Q47.4062 31.2969 43.5312 35.8281
Q39.6562 40.375 33.0156 40.375
M52.5938 71.2969
L52.5938 62.3125
Q48.875 64.0625 45.0938 64.9844
Q41.3125 65.9219 37.5938 65.9219
Q27.8281 65.9219 22.6719 59.3281
Q17.5312 52.7344 16.7969 39.4062
Q19.6719 43.6562 24.0156 45.9219
Q28.375 48.1875 33.5938 48.1875
Q44.5781 48.1875 50.9531 41.5156
Q57.3281 34.8594 57.3281 23.3906
Q57.3281 12.1562 50.6875 5.35938
Q44.0469 -1.42188 33.0156 -1.42188
Q20.3594 -1.42188 13.6719 8.26562
Q6.98438 17.9688 6.98438 36.375
Q6.98438 53.6562 15.1875 63.9375
Q23.3906 74.2188 37.2031 74.2188
Q40.9219 74.2188 44.7031 73.4844
Q48.4844 72.75 52.5938 71.2969" id="BitstreamVeraSans-Roman-36"/>
      </defs>
      <g transform="translate(206.71875 155.421875)scale(0.1 -0.1)">
       <use xlink:href="#BitstreamVeraSans-Roman-36"/>
       <use x="63.623046875" xlink:href="#BitstreamVeraSans-Roman-30"/>
      </g>
     </g>
    </g>
    <g id="xtick_5">
     <g id="line2d_10">
      <g>
       <use style="stroke:#000000;stroke-linecap:butt;stroke-width:0.5;" x="268.2" xlink:href="#mcb557df647" y="144.0"/>
      </g>
     </g>
     <g id="line2d_11">
      <g>
       <use style="stroke:#000000;stroke-linecap:butt;stroke-width:0.5;" x="268.2" xlink:href="#mdad270ee8e" y="18.0"/>
      </g>
     </g>
     <g id="text_5">
      <!-- 80 -->
      <defs>
       <path d="
M31.7812 34.625
Q24.75 34.625 20.7188 30.8594
Q16.7031 27.0938 16.7031 20.5156
Q16.7031 13.9219 20.7188 10.1562
Q24.75 6.39062 31.7812 6.39062
Q38.8125 6.39062 42.8594 10.1719
Q46.9219 13.9688 46.9219 20.5156
Q46.9219 27.0938 42.8906 30.8594
Q38.875 34.625 31.7812 34.625
M21.9219 38.8125
Q15.5781 40.375 12.0312 44.7188
Q8.5 49.0781 8.5 55.3281
Q8.5 64.0625 14.7188 69.1406
Q20.9531 74.2188 31.7812 74.2188
Q42.6719 74.2188 48.875 69.1406
Q55.0781 64.0625 55.0781 55.3281
Q55.0781 49.0781 51.5312 44.7188
Q48 40.375 41.7031 38.8125
Q48.8281 37.1562 52.7969 32.3125
Q56.7812 27.4844 56.7812 20.5156
Q56.7812 9.90625 50.3125 4.23438
Q43.8438 -1.42188 31.7812 -1.42188
Q19.7344 -1.42188 13.25 4.23438
Q6.78125 9.90625 6.78125 20.5156
Q6.78125 27.4844 10.7812 32.3125
Q14.7969 37.1562 21.9219 38.8125
M18.3125 54.3906
Q18.3125 48.7344 21.8438 45.5625
Q25.3906 42.3906 31.7812 42.3906
Q38.1406 42.3906 41.7188 45.5625
Q45.3125 48.7344 45.3125 54.3906
Q45.3125 60.0625 41.7188 63.2344
Q38.1406 66.4062 31.7812 66.4062
Q25.3906 66.4062 21.8438 63.2344
Q18.3125 60.0625 18.3125 54.3906" id="BitstreamVeraSans-Roman-38"/>
      </defs>
      <g transform="translate(262.50859375 155.421875)scale(0.1 -0.1)">
       <use xlink:href="#BitstreamVeraSans-Roman-38"/>
       <use x="63.623046875" xlink:href="#BitstreamVeraSans-Roman-30"/>
      </g>
     </g>
    </g>
    <g id="xtick_6">
     <g id="line2d_12">
      <g>
       <use style="stroke:#000000;stroke-linecap:butt;stroke-width:0.5;" x="324.0" xlink:href="#mcb557df647" y="144.0"/>
      </g>
     </g>
     <g id="line2d_13">
      <g>
       <use style="stroke:#000000;stroke-linecap:butt;stroke-width:0.5;" x="324.0" xlink:href="#mdad270ee8e" y="18.0"/>
      </g>
     </g>
     <g id="text_6">
      <!-- 100 -->
      <defs>
       <path d="
M12.4062 8.29688
L28.5156 8.29688
L28.5156 63.9219
L10.9844 60.4062
L10.9844 69.3906
L28.4219 72.9062
L38.2812 72.9062
L38.2812 8.29688
L54.3906 8.29688
L54.3906 0
L12.4062 0
z
" id="BitstreamVeraSans-Roman-31"/>
      </defs>
      <g transform="translate(315.3375 155.421875)scale(0.1 -0.1)">
       <use xlink:href="#BitstreamVeraSans-Roman-31"/>
       <use x="63.623046875" xlink:href="#BitstreamVeraSans-Roman-30"/>
       <use x="127.24609375" xlink:href="#BitstreamVeraSans-Roman-30"/>
      </g>
     </g>
    </g>
    <g id="text_7">
     <!-- time $t$ (ps) -->
     <defs>
      <path id="BitstreamVeraSans-Roman-20"/>
      <path d="
M8.01562 75.875
L15.8281 75.875
Q23.1406 64.3594 26.7812 53.3125
Q30.4219 42.2812 30.4219 31.3906
Q30.4219 20.4531 26.7812 9.375
Q23.1406 -1.70312 15.8281 -13.1875
L8.01562 -13.1875
Q14.5 -2 17.7031 9.0625
Q20.9062 20.125 20.9062 31.3906
Q20.9062 42.6719 17.7031 53.6562
Q14.5 64.6562 8.01562 75.875" id="BitstreamVeraSans-Roman-29"/>
      <path d="
M52 44.1875
Q55.375 50.25 60.0625 53.125
Q64.75 56 71.0938 56
Q79.6406 56 84.2812 50.0156
Q88.9219 44.0469 88.9219 33.0156
L88.9219 0
L79.8906 0
L79.8906 32.7188
Q79.8906 40.5781 77.0938 44.375
Q74.3125 48.1875 68.6094 48.1875
Q61.625 48.1875 57.5625 43.5469
Q53.5156 38.9219 53.5156 30.9062
L53.5156 0
L44.4844 0
L44.4844 32.7188
Q44.4844 40.625 41.7031 44.4062
Q38.9219 48.1875 33.1094 48.1875
Q26.2188 48.1875 22.1562 43.5312
Q18.1094 38.875 18.1094 30.9062
L18.1094 0
L9.07812 0
L9.07812 54.6875
L18.1094 54.6875
L18.1094 46.1875
Q21.1875 51.2188 25.4844 53.6094
Q29.7812 56 35.6875 56
Q41.6562 56 45.8281 52.9688
Q50 49.9531 52 44.1875" id="BitstreamVeraSans-Roman-6d"/>
      <path d="
M9.42188 54.6875
L18.4062 54.6875
L18.4062 0
L9.42188 0
z

M9.42188 75.9844
L18.4062 75.9844
L18.4062 64.5938
L9.42188 64.5938
z
" id="BitstreamVeraSans-Roman-69"/>
      <path d="
M6.20312 8.10938
Q6.20312 9.57812 6.5 10.8906
L13.7188 39.5938
L3.21875 39.5938
Q2.20312 39.5938 2.20312 40.9219
Q2.59375 43.1094 3.51562 43.1094
L14.5938 43.1094
L18.6094 59.4219
Q19 60.75 20.1719 61.6719
Q21.3438 62.5938 22.7969 62.5938
Q24.0781 62.5938 24.9219 61.8281
Q25.7812 61.0781 25.7812 59.8125
Q25.7812 59.5156 25.75 59.3438
Q25.7344 59.1875 25.6875 58.9844
L21.6875 43.1094
L31.9844 43.1094
Q33.0156 43.1094 33.0156 41.7969
Q32.9531 41.5469 32.8125 40.9531
Q32.6719 40.375 32.4219 39.9844
Q32.1719 39.5938 31.6875 39.5938
L20.7969 39.5938
L13.625 10.6875
Q12.8906 7.85938 12.8906 5.8125
Q12.8906 1.51562 15.8281 1.51562
Q20.2188 1.51562 23.6094 5.64062
Q27 9.76562 28.8125 14.7031
Q29.2031 15.2812 29.5938 15.2812
L30.8125 15.2812
Q31.2031 15.2812 31.4375 15.0156
Q31.6875 14.75 31.6875 14.4062
Q31.6875 14.2031 31.5938 14.1094
Q29.3906 8.0625 25.1875 3.46875
Q21 -1.125 15.5781 -1.125
Q11.625 -1.125 8.90625 1.45312
Q6.20312 4.04688 6.20312 8.10938" id="Cmmi10-74"/>
      <path d="
M31 75.875
Q24.4688 64.6562 21.2812 53.6562
Q18.1094 42.6719 18.1094 31.3906
Q18.1094 20.125 21.3125 9.0625
Q24.5156 -2 31 -13.1875
L23.1875 -13.1875
Q15.875 -1.70312 12.2344 9.375
Q8.59375 20.4531 8.59375 31.3906
Q8.59375 42.2812 12.2031 53.3125
Q15.8281 64.3594 23.1875 75.875
z
" id="BitstreamVeraSans-Roman-28"/>
      <path d="
M56.2031 29.5938
L56.2031 25.2031
L14.8906 25.2031
Q15.4844 15.9219 20.4844 11.0625
Q25.4844 6.20312 34.4219 6.20312
Q39.5938 6.20312 44.4531 7.46875
Q49.3125 8.73438 54.1094 11.2812
L54.1094 2.78125
Q49.2656 0.734375 44.1875 -0.34375
Q39.1094 -1.42188 33.8906 -1.42188
Q20.7969 -1.42188 13.1562 6.1875
Q5.51562 13.8125 5.51562 26.8125
Q5.51562 40.2344 12.7656 48.1094
Q20.0156 56 32.3281 56
Q43.3594 56 49.7812 48.8906
Q56.2031 41.7969 56.2031 29.5938
M47.2188 32.2344
Q47.125 39.5938 43.0938 43.9844
Q39.0625 48.3906 32.4219 48.3906
Q24.9062 48.3906 20.3906 44.1406
Q15.875 39.8906 15.1875 32.1719
z
" id="BitstreamVeraSans-Roman-65"/>
      <path d="
M18.3125 70.2188
L18.3125 54.6875
L36.8125 54.6875
L36.8125 47.7031
L18.3125 47.7031
L18.3125 18.0156
Q18.3125 11.3281 20.1406 9.42188
Q21.9688 7.51562 27.5938 7.51562
L36.8125 7.51562
L36.8125 0
L27.5938 0
Q17.1875 0 13.2344 3.875
Q9.28125 7.76562 9.28125 18.0156
L9.28125 47.7031
L2.6875 47.7031
L2.6875 54.6875
L9.28125 54.6875
L9.28125 70.2188
z
" id="BitstreamVeraSans-Roman-74"/>
      <path d="
M44.2812 53.0781
L44.2812 44.5781
Q40.4844 46.5312 36.375 47.5
Q32.2812 48.4844 27.875 48.4844
Q21.1875 48.4844 17.8438 46.4375
Q14.5 44.3906 14.5 40.2812
Q14.5 37.1562 16.8906 35.375
Q19.2812 33.5938 26.5156 31.9844
L29.5938 31.2969
Q39.1562 29.25 43.1875 25.5156
Q47.2188 21.7812 47.2188 15.0938
Q47.2188 7.46875 41.1875 3.01562
Q35.1562 -1.42188 24.6094 -1.42188
Q20.2188 -1.42188 15.4531 -0.5625
Q10.6875 0.296875 5.42188 2
L5.42188 11.2812
Q10.4062 8.6875 15.2344 7.39062
Q20.0625 6.10938 24.8125 6.10938
Q31.1562 6.10938 34.5625 8.28125
Q37.9844 10.4531 37.9844 14.4062
Q37.9844 18.0625 35.5156 20.0156
Q33.0625 21.9688 24.7031 23.7812
L21.5781 24.5156
Q13.2344 26.2656 9.51562 29.9062
Q5.8125 33.5469 5.8125 39.8906
Q5.8125 47.6094 11.2812 51.7969
Q16.75 56 26.8125 56
Q31.7812 56 36.1719 55.2656
Q40.5781 54.5469 44.2812 53.0781" id="BitstreamVeraSans-Roman-73"/>
      <path d="
M18.1094 8.20312
L18.1094 -20.7969
L9.07812 -20.7969
L9.07812 54.6875
L18.1094 54.6875
L18.1094 46.3906
Q20.9531 51.2656 25.2656 53.625
Q29.5938 56 35.5938 56
Q45.5625 56 51.7812 48.0938
Q58.0156 40.1875 58.0156 27.2969
Q58.0156 14.4062 51.7812 6.48438
Q45.5625 -1.42188 35.5938 -1.42188
Q29.5938 -1.42188 25.2656 0.953125
Q20.9531 3.32812 18.1094 8.20312
M48.6875 27.2969
Q48.6875 37.2031 44.6094 42.8438
Q40.5312 48.4844 33.4062 48.4844
Q26.2656 48.4844 22.1875 42.8438
Q18.1094 37.2031 18.1094 27.2969
Q18.1094 17.3906 22.1875 11.75
Q26.2656 6.10938 33.4062 6.10938
Q40.5312 6.10938 44.6094 11.75
Q48.6875 17.3906 48.6875 27.2969" id="BitstreamVeraSans-Roman-70"/>
     </defs>
     <g transform="translate(158.5 170.2640625)scale(0.1 -0.1)">
      <use transform="translate(0.0 21.015625)" xlink:href="#BitstreamVeraSans-Roman-74"/>
      <use transform="translate(39.208984375 21.015625)" xlink:href="#BitstreamVeraSans-Roman-69"/>
      <use transform="translate(66.9921875 21.015625)" xlink:href="#BitstreamVeraSans-Roman-6d"/>
      <use transform="translate(164.404296875 21.015625)" xlink:href="#BitstreamVeraSans-Roman-65"/>
      <use transform="translate(225.927734375 21.015625)" xlink:href="#BitstreamVeraSans-Roman-20"/>
      <use transform="translate(257.71484375 21.015625)" xlink:href="#Cmmi10-74"/>
      <use transform="translate(293.798828125 21.015625)" xlink:href="#BitstreamVeraSans-Roman-20"/>
      <use transform="translate(325.5859375 21.015625)" xlink:href="#BitstreamVeraSans-Roman-28"/>
      <use transform="translate(364.599609375 21.015625)" xlink:href="#BitstreamVeraSans-Roman-70"/>
      <use transform="translate(428.076171875 21.015625)" xlink:href="#BitstreamVeraSans-Roman-73"/>
      <use transform="translate(480.17578125 21.015625)" xlink:href="#BitstreamVeraSans-Roman-29"/>
     </g>
    </g>
   </g>
   <g id="matplotlib.axis_2">
    <g id="ytick_1">
     <g id="line2d_14">
      <defs>
       <path d="
M0 0
L4 0" id="mc8fcea1516" style="stroke:#000000;stroke-linecap:butt;stroke-width:0.5;"/>
      </defs>
      <g>
       <use style="stroke:#000000;stroke-linecap:butt;stroke-width:0.5;" x="45.0" xlink:href="#mc8fcea1516" y="144.0"/>
      </g>
     </g>
     <g id="line2d_15">
      <defs>
       <path d="
M0 0
L-4 0" id="m0d5b0a6425" style="stroke:#000000;stroke-linecap:butt;stroke-width:0.5;"/>
      </defs>
      <g>
       <use style="stroke:#000000;stroke-linecap:butt;stroke-width:0.5;" x="324.0" xlink:href="#m0d5b0a6425" y="144.0"/>
      </g>
     </g>
     <g id="text_8">
      <!-- 0.00 -->
      <defs>
       <path d="
M10.6875 12.4062
L21 12.4062
L21 0
L10.6875 0
z
" id="BitstreamVeraSans-Roman-2e"/>
      </defs>
      <g transform="translate(20.0578125 147.63984375)scale(0.1 -0.1)">
       <use xlink:href="#BitstreamVeraSans-Roman-30"/>
       <use x="63.623046875" xlink:href="#BitstreamVeraSans-Roman-2e"/>
       <use x="95.41015625" xlink:href="#BitstreamVeraSans-Roman-30"/>
       <use x="159.033203125" xlink:href="#BitstreamVeraSans-Roman-30"/>
      </g>
     </g>
    </g>
    <g id="ytick_2">
     <g id="line2d_16">
      <g>
       <use style="stroke:#000000;stroke-linecap:butt;stroke-width:0.5;" x="45.0" xlink:href="#mc8fcea1516" y="128.25"/>
      </g>
     </g>
     <g id="line2d_17">
      <g>
       <use style="stroke:#000000;stroke-linecap:butt;stroke-width:0.5;" x="324.0" xlink:href="#m0d5b0a6425" y="128.25"/>
      </g>
     </g>
     <g id="text_9">
      <!-- 0.02 -->
      <g transform="translate(20.3953125 131.88984375)scale(0.1 -0.1)">
       <use xlink:href="#BitstreamVeraSans-Roman-30"/>
       <use x="63.623046875" xlink:href="#BitstreamVeraSans-Roman-2e"/>
       <use x="95.41015625" xlink:href="#BitstreamVeraSans-Roman-30"/>
       <use x="159.033203125" xlink:href="#BitstreamVeraSans-Roman-32"/>
      </g>
     </g>
    </g>
    <g id="ytick_3">
     <g id="line2d_18">
      <g>
       <use style="stroke:#000000;stroke-linecap:butt;stroke-width:0.5;" x="45.0" xlink:href="#mc8fcea1516" y="112.5"/>
      </g>
     </g>
     <g id="line2d_19">
      <g>
       <use style="stroke:#000000;stroke-linecap:butt;stroke-width:0.5;" x="324.0" xlink:href="#m0d5b0a6425" y="112.5"/>
      </g>
     </g>
     <g id="text_10">
      <!-- 0.04 -->
      <g transform="translate(19.9546875 116.13984375)scale(0.1 -0.1)">
       <use xlink:href="#BitstreamVeraSans-Roman-30"/>
       <use x="63.623046875" xlink:href="#BitstreamVeraSans-Roman-2e"/>
       <use x="95.41015625" xlink:href="#BitstreamVeraSans-Roman-30"/>
       <use x="159.033203125" xlink:href="#BitstreamVeraSans-Roman-34"/>
      </g>
     </g>
    </g>
    <g id="ytick_4">
     <g id="line2d_20">
      <g>
       <use style="stroke:#000000;stroke-linecap:butt;stroke-width:0.5;" x="45.0" xlink:href="#mc8fcea1516" y="96.75"/>
      </g>
     </g>
     <g id="line2d_21">
      <g>
       <use style="stroke:#000000;stroke-linecap:butt;stroke-width:0.5;" x="324.0" xlink:href="#m0d5b0a6425" y="96.75"/>
      </g>
     </g>
     <g id="text_11">
      <!-- 0.06 -->
      <g transform="translate(20.0234375 100.38984375)scale(0.1 -0.1)">
       <use xlink:href="#BitstreamVeraSans-Roman-30"/>
       <use x="63.623046875" xlink:href="#BitstreamVeraSans-Roman-2e"/>
       <use x="95.41015625" xlink:href="#BitstreamVeraSans-Roman-30"/>
       <use x="159.033203125" xlink:href="#BitstreamVeraSans-Roman-36"/>
      </g>
     </g>
    </g>
    <g id="ytick_5">
     <g id="line2d_22">
      <g>
       <use style="stroke:#000000;stroke-linecap:butt;stroke-width:0.5;" x="45.0" xlink:href="#mc8fcea1516" y="81.0"/>
      </g>
     </g>
     <g id="line2d_23">
      <g>
       <use style="stroke:#000000;stroke-linecap:butt;stroke-width:0.5;" x="324.0" xlink:href="#m0d5b0a6425" y="81.0"/>
      </g>
     </g>
     <g id="text_12">
      <!-- 0.08 -->
      <g transform="translate(20.078125 84.63984375)scale(0.1 -0.1)">
       <use xlink:href="#BitstreamVeraSans-Roman-30"/>
       <use x="63.623046875" xlink:href="#BitstreamVeraSans-Roman-2e"/>
       <use x="95.41015625" xlink:href="#BitstreamVeraSans-Roman-30"/>
       <use x="159.033203125" xlink:href="#BitstreamVeraSans-Roman-38"/>
      </g>
     </g>
    </g>
    <g id="ytick_6">
     <g id="line2d_24">
      <g>
       <use style="stroke:#000000;stroke-linecap:butt;stroke-width:0.5;" x="45.0" xlink:href="#mc8fcea1516" y="65.25"/>
      </g>
     </g>
     <g id="line2d_25">
      <g>
       <use style="stroke:#000000;stroke-linecap:butt;stroke-width:0.5;" x="324.0" xlink:href="#m0d5b0a6425" y="65.25"/>
      </g>
     </g>
     <g id="text_13">
      <!-- 0.10 -->
      <g transform="translate(20.0578125 68.88984375)scale(0.1 -0.1)">
       <use xlink:href="#BitstreamVeraSans-Roman-30"/>
       <use x="63.623046875" xlink:href="#BitstreamVeraSans-Roman-2e"/>
       <use x="95.41015625" xlink:href="#BitstreamVeraSans-Roman-31"/>
       <use x="159.033203125" xlink:href="#BitstreamVeraSans-Roman-30"/>
      </g>
     </g>
    </g>
    <g id="ytick_7">
     <g id="line2d_26">
      <g>
       <use style="stroke:#000000;stroke-linecap:butt;stroke-width:0.5;" x="45.0" xlink:href="#mc8fcea1516" y="49.5"/>
      </g>
     </g>
     <g id="line2d_27">
      <g>
       <use style="stroke:#000000;stroke-linecap:butt;stroke-width:0.5;" x="324.0" xlink:href="#m0d5b0a6425" y="49.5"/>
      </g>
     </g>
     <g id="text_14">
      <!-- 0.12 -->
      <g transform="translate(20.3953125 53.13984375)scale(0.1 -0.1)">
       <use xlink:href="#BitstreamVeraSans-Roman-30"/>
       <use x="63.623046875" xlink:href="#BitstreamVeraSans-Roman-2e"/>
       <use x="95.41015625" xlink:href="#BitstreamVeraSans-Roman-31"/>
       <use x="159.033203125" xlink:href="#BitstreamVeraSans-Roman-32"/>
      </g>
     </g>
    </g>
    <g id="ytick_8">
     <g id="line2d_28">
      <g>
       <use style="stroke:#000000;stroke-linecap:butt;stroke-width:0.5;" x="45.0" xlink:href="#mc8fcea1516" y="33.75"/>
      </g>
     </g>
     <g id="line2d_29">
      <g>
       <use style="stroke:#000000;stroke-linecap:butt;stroke-width:0.5;" x="324.0" xlink:href="#m0d5b0a6425" y="33.75"/>
      </g>
     </g>
     <g id="text_15">
      <!-- 0.14 -->
      <g transform="translate(19.9546875 37.38984375)scale(0.1 -0.1)">
       <use xlink:href="#BitstreamVeraSans-Roman-30"/>
       <use x="63.623046875" xlink:href="#BitstreamVeraSans-Roman-2e"/>
       <use x="95.41015625" xlink:href="#BitstreamVeraSans-Roman-31"/>
       <use x="159.033203125" xlink:href="#BitstreamVeraSans-Roman-34"/>
      </g>
     </g>
    </g>
    <g id="ytick_9">
     <g id="line2d_30">
      <g>
       <use style="stroke:#000000;stroke-linecap:butt;stroke-width:0.5;" x="45.0" xlink:href="#mc8fcea1516" y="18.0"/>
      </g>
     </g>
     <g id="line2d_31">
      <g>
       <use style="stroke:#000000;stroke-linecap:butt;stroke-width:0.5;" x="324.0" xlink:href="#m0d5b0a6425" y="18.0"/>
      </g>
     </g>
     <g id="text_16">
      <!-- 0.16 -->
      <g transform="translate(20.0234375 21.63984375)scale(0.1 -0.1)">
       <use xlink:href="#BitstreamVeraSans-Roman-30"/>
       <use x="63.623046875" xlink:href="#BitstreamVeraSans-Roman-2e"/>
       <use x="95.41015625" xlink:href="#BitstreamVeraSans-Roman-31"/>
       <use x="159.033203125" xlink:href="#BitstreamVeraSans-Roman-36"/>
      </g>
     </g>
    </g>
    <g id="text_17">
     <!-- $C_\alpha$ RMSD (nm) -->
     <defs>
      <path d="
M20.125 -1.125
Q15.375 -1.125 11.6875 1.125
Q8.01562 3.375 6 7.17188
Q4 10.9844 4 15.8281
Q4 22.6094 7.78125 29.25
Q11.5781 35.8906 17.8438 40.0312
Q24.125 44.1875 31 44.1875
Q36.0781 44.1875 39.9375 41.5312
Q43.7969 38.875 45.7969 34.4531
Q47.7969 30.0312 47.7969 25
L47.9062 18.3125
Q51.3125 23.0469 53.6875 28.1406
Q56.0625 33.25 57.3281 38.7188
Q57.5156 39.3125 58.1094 39.3125
L59.2812 39.3125
Q60.2031 39.3125 60.2031 38.375
Q60.2031 38.2812 60.1094 38.0938
Q58.9375 33.5 57.1719 29.2656
Q55.4219 25.0469 53.0469 21.0938
Q50.6875 17.1406 47.9062 13.9219
Q47.9062 1.51562 50.7812 1.51562
Q52.6406 1.51562 53.8281 2.60938
Q55.0312 3.71875 55.9375 5.32812
Q56.8438 6.9375 57.0781 6.98438
L58.2969 6.98438
Q59.0781 6.98438 59.0781 6
Q59.0781 3.51562 56.2188 1.1875
Q53.375 -1.125 50.5938 -1.125
Q46.9688 -1.125 44.5781 1.21875
Q42.1875 3.5625 41.3125 7.32812
Q36.625 3.32812 31.1562 1.09375
Q25.6875 -1.125 20.125 -1.125
M20.3125 1.51562
Q31 1.51562 40.8281 10.2969
Q40.7656 10.8906 40.6719 11.7344
Q40.5781 12.5938 40.5781 12.7031
L40.5781 23.4844
Q40.5781 41.6094 30.8125 41.6094
Q24.9531 41.6094 20.5469 36.5938
Q16.1562 31.5938 13.9375 24.625
Q11.7188 17.6719 11.7188 11.9219
Q11.7188 7.5625 13.9375 4.53125
Q16.1562 1.51562 20.3125 1.51562" id="Cmmi10-ae"/>
      <path d="
M9.8125 72.9062
L24.5156 72.9062
L43.1094 23.2969
L61.8125 72.9062
L76.5156 72.9062
L76.5156 0
L66.8906 0
L66.8906 64.0156
L48.0938 14.0156
L38.1875 14.0156
L19.3906 64.0156
L19.3906 0
L9.8125 0
z
" id="BitstreamVeraSans-Roman-4d"/>
      <path d="
M54.8906 33.0156
L54.8906 0
L45.9062 0
L45.9062 32.7188
Q45.9062 40.4844 42.875 44.3281
Q39.8438 48.1875 33.7969 48.1875
Q26.5156 48.1875 22.3125 43.5469
Q18.1094 38.9219 18.1094 30.9062
L18.1094 0
L9.07812 0
L9.07812 54.6875
L18.1094 54.6875
L18.1094 46.1875
Q21.3438 51.125 25.7031 53.5625
Q30.0781 56 35.7969 56
Q45.2188 56 50.0469 50.1719
Q54.8906 44.3438 54.8906 33.0156" id="BitstreamVeraSans-Roman-6e"/>
      <path d="
M44.3906 34.1875
Q47.5625 33.1094 50.5625 29.5938
Q53.5625 26.0781 56.5938 19.9219
L66.6094 0
L56 0
L46.6875 18.7031
Q43.0625 26.0312 39.6719 28.4219
Q36.2812 30.8125 30.4219 30.8125
L19.6719 30.8125
L19.6719 0
L9.8125 0
L9.8125 72.9062
L32.0781 72.9062
Q44.5781 72.9062 50.7344 67.6719
Q56.8906 62.4531 56.8906 51.9062
Q56.8906 45.0156 53.6875 40.4688
Q50.4844 35.9375 44.3906 34.1875
M19.6719 64.7969
L19.6719 38.9219
L32.0781 38.9219
Q39.2031 38.9219 42.8438 42.2188
Q46.4844 45.5156 46.4844 51.9062
Q46.4844 58.2969 42.8438 61.5469
Q39.2031 64.7969 32.0781 64.7969
z
" id="BitstreamVeraSans-Roman-52"/>
      <path d="
M19.6719 64.7969
L19.6719 8.10938
L31.5938 8.10938
Q46.6875 8.10938 53.6875 14.9375
Q60.6875 21.7812 60.6875 36.5312
Q60.6875 51.1719 53.6875 57.9844
Q46.6875 64.7969 31.5938 64.7969
z

M9.8125 72.9062
L30.0781 72.9062
Q51.2656 72.9062 61.1719 64.0938
Q71.0938 55.2812 71.0938 36.5312
Q71.0938 17.6719 61.125 8.82812
Q51.1719 0 30.0781 0
L9.8125 0
z
" id="BitstreamVeraSans-Roman-44"/>
      <path d="
M14.5938 21.5781
Q14.5938 15.5781 16.9062 11.0156
Q19.2344 6.45312 23.6562 3.875
Q28.0781 1.3125 34.0781 1.3125
Q40.375 1.3125 46.2031 4.53125
Q52.0469 7.76562 56.1719 13.1562
Q60.2969 18.5625 61.8125 24.6094
Q62.0156 25.2031 62.5938 25.2031
L63.8125 25.2031
Q64.2031 25.2031 64.4531 24.9219
Q64.7031 24.6562 64.7031 24.3125
Q64.7031 24.2188 64.5938 24.0312
Q62.8906 17.0938 57.9844 11.0156
Q53.0781 4.9375 46.2344 1.35938
Q39.4062 -2.20312 32.1719 -2.20312
Q24.3594 -2.20312 18.1562 1.3125
Q11.9688 4.82812 8.51562 11.0781
Q5.07812 17.3281 5.07812 25.2031
Q5.07812 33.5938 8.82812 41.8125
Q12.5938 50.0469 18.9375 56.4688
Q25.2969 62.8906 33.4219 66.7031
Q41.5469 70.5156 49.9062 70.5156
Q53.2188 70.5156 56.25 69.5
Q59.2812 68.5 61.8594 66.4531
Q64.4531 64.4062 66.1094 61.7188
L74.0312 70.3125
Q74.0312 70.5156 74.5156 70.5156
L75.0938 70.5156
Q75.4844 70.5156 75.7344 70.1719
Q75.9844 69.8281 75.9844 69.4844
L69.1875 42.4844
Q69.1875 41.7969 68.4062 41.7969
L66.6094 41.7969
Q65.8281 41.7969 65.8281 42.9219
Q66.2188 45.125 66.2188 48.1875
Q66.2188 53.0781 64.5469 57.3906
Q62.8906 61.7188 59.3906 64.3594
Q55.9062 67 50.875 67
Q42.7188 67 35.9375 62.8906
Q29.1562 58.7969 24.4375 52.125
Q19.7344 45.4531 17.1562 37.3281
Q14.5938 29.2031 14.5938 21.5781" id="Cmmi10-43"/>
      <path d="
M53.5156 70.5156
L53.5156 60.8906
Q47.9062 63.5781 42.9219 64.8906
Q37.9375 66.2188 33.2969 66.2188
Q25.25 66.2188 20.875 63.0938
Q16.5 59.9688 16.5 54.2031
Q16.5 49.3594 19.4062 46.8906
Q22.3125 44.4375 30.4219 42.9219
L36.375 41.7031
Q47.4062 39.5938 52.6562 34.2969
Q57.9062 29 57.9062 20.125
Q57.9062 9.51562 50.7969 4.04688
Q43.7031 -1.42188 29.9844 -1.42188
Q24.8125 -1.42188 18.9688 -0.25
Q13.1406 0.921875 6.89062 3.21875
L6.89062 13.375
Q12.8906 10.0156 18.6562 8.29688
Q24.4219 6.59375 29.9844 6.59375
Q38.4219 6.59375 43.0156 9.90625
Q47.6094 13.2344 47.6094 19.3906
Q47.6094 24.75 44.3125 27.7812
Q41.0156 30.8125 33.5 32.3281
L27.4844 33.5
Q16.4531 35.6875 11.5156 40.375
Q6.59375 45.0625 6.59375 53.4219
Q6.59375 63.0938 13.4062 68.6562
Q20.2188 74.2188 32.1719 74.2188
Q37.3125 74.2188 42.625 73.2812
Q47.9531 72.3594 53.5156 70.5156" id="BitstreamVeraSans-Roman-53"/>
     </defs>
     <g transform="translate(14.9546875 117.7)rotate(-90.0)scale(0.1 -0.1)">
      <use transform="translate(0.0 27.125)" xlink:href="#Cmmi10-43"/>
      <use transform="translate(71.38671875 1.615625)scale(0.7)" xlink:href="#Cmmi10-ae"/>
      <use transform="translate(135.302734375 27.125)" xlink:href="#BitstreamVeraSans-Roman-20"/>
      <use transform="translate(167.08984375 27.125)" xlink:href="#BitstreamVeraSans-Roman-52"/>
      <use transform="translate(236.572265625 27.125)" xlink:href="#BitstreamVeraSans-Roman-4d"/>
      <use transform="translate(322.8515625 27.125)" xlink:href="#BitstreamVeraSans-Roman-53"/>
      <use transform="translate(386.328125 27.125)" xlink:href="#BitstreamVeraSans-Roman-44"/>
      <use transform="translate(463.330078125 27.125)" xlink:href="#BitstreamVeraSans-Roman-20"/>
      <use transform="translate(495.1171875 27.125)" xlink:href="#BitstreamVeraSans-Roman-28"/>
      <use transform="translate(534.130859375 27.125)" xlink:href="#BitstreamVeraSans-Roman-6e"/>
      <use transform="translate(597.509765625 27.125)" xlink:href="#BitstreamVeraSans-Roman-6d"/>
      <use transform="translate(694.921875 27.125)" xlink:href="#BitstreamVeraSans-Roman-29"/>
     </g>
    </g>
   </g>
   <g id="patch_3">
    <path d="
M45 18
L324 18" style="fill:none;stroke:#000000;"/>
   </g>
   <g id="patch_4">
    <path d="
M324 144
L324 18" style="fill:none;stroke:#000000;"/>
   </g>
   <g id="patch_5">
    <path d="
M45 144
L324 144" style="fill:none;stroke:#000000;"/>
   </g>
   <g id="patch_6">
    <path d="
M45 144
L45 18" style="fill:none;stroke:#000000;"/>
   </g>
  </g>
 </g>
 <defs>
  <clipPath id="p4e9530b0aa">
   <rect height="126.0" width="279.0" x="45.0" y="18.0"/>
  </clipPath>
 </defs>
</svg>
