<?xml version="1.0" encoding="utf-8" standalone="no"?>
<!DOCTYPE svg PUBLIC "-//W3C//DTD SVG 1.1//EN"
  "http://www.w3.org/Graphics/SVG/1.1/DTD/svg11.dtd">
<!-- Created with matplotlib (http://matplotlib.org/) -->
<svg height="180pt" version="1.1" viewBox="0 0 360 180" width="360pt" xmlns="http://www.w3.org/2000/svg" xmlns:xlink="http://www.w3.org/1999/xlink">
 <defs>
  <style type="text/css">
*{stroke-linecap:square;stroke-linejoin:round;}
  </style>
 </defs>
 <g id="figure_1">
  <g id="patch_1">
   <path d="
M0 180
L360 180
L360 0
L0 0
z
" style="fill:#ffffff;"/>
  </g>
  <g id="axes_1">
   <g id="patch_2">
    <path d="
M45 144
L324 144
L324 18
L45 18
z
" style="fill:#ffffff;"/>
   </g>
   <g id="PolyCollection_1">
    <defs>
     <path d="
M45 -36
L45 -134.986
L47.79 -135.964
L50.58 -136.117
L53.37 -136.31
L56.16 -136.244
L58.95 -136.129
L61.74 -136.623
L64.53 -136.429
L67.32 -136.675
L70.11 -137.033
L72.9 -136.389
L75.69 -136.396
L78.48 -136.6
L81.27 -136.763
L84.06 -137.174
L86.85 -137.547
L89.64 -137.263
L92.43 -136.832
L95.22 -136.95
L98.01 -137.121
L100.8 -137.037
L103.59 -137.754
L106.38 -137.649
L109.17 -137.376
L111.96 -137.183
L114.75 -137.202
L117.54 -137.181
L120.33 -137.105
L123.12 -136.955
L125.91 -137.03
L128.7 -137.114
L131.49 -137.429
L134.28 -136.77
L137.07 -136.421
L139.86 -136.472
L142.65 -136.292
L145.44 -136.789
L148.23 -137.043
L151.02 -136.892
L153.81 -136.887
L156.6 -136.629
L159.39 -136.332
L162.18 -136.637
L164.97 -136.32
L167.76 -136.279
L170.55 -136.441
L173.34 -136.483
L176.13 -136.949
L178.92 -136.745
L181.71 -136.658
L184.5 -136.483
L187.29 -136.426
L190.08 -136.324
L192.87 -136.283
L195.66 -136.036
L198.45 -135.95
L201.24 -135.994
L204.03 -136.058
L206.82 -135.833
L209.61 -135.801
L212.4 -135.647
L215.19 -135.653
L217.98 -135.861
L220.77 -135.759
L223.56 -136.033
L226.35 -135.86
L229.14 -135.976
L231.93 -135.804
L234.72 -135.754
L237.51 -135.965
L240.3 -135.97
L243.09 -136.186
L245.88 -135.918
L248.67 -135.784
L251.46 -135.697
L254.25 -136.008
L257.04 -136.097
L259.83 -136.118
L262.62 -135.613
L265.41 -135.786
L268.2 -135.951
L270.99 -136.381
L273.78 -136.299
L276.57 -136.207
L279.36 -136.032
L282.15 -135.418
L284.94 -135.875
L287.73 -136.368
L290.52 -136.343
L293.31 -136.257
L296.1 -136.249
L298.89 -136.356
L301.68 -136.482
L304.47 -136.156
L307.26 -136.334
L310.05 -136.078
L312.84 -136.225
L315.63 -135.988
L318.42 -136.304
L321.21 -136.246
L324 -136.585
L324 -36
L324 -36
L321.21 -36
L318.42 -36
L315.63 -36
L312.84 -36
L310.05 -36
L307.26 -36
L304.47 -36
L301.68 -36
L298.89 -36
L296.1 -36
L293.31 -36
L290.52 -36
L287.73 -36
L284.94 -36
L282.15 -36
L279.36 -36
L276.57 -36
L273.78 -36
L270.99 -36
L268.2 -36
L265.41 -36
L262.62 -36
L259.83 -36
L257.04 -36
L254.25 -36
L251.46 -36
L248.67 -36
L245.88 -36
L243.09 -36
L240.3 -36
L237.51 -36
L234.72 -36
L231.93 -36
L229.14 -36
L226.35 -36
L223.56 -36
L220.77 -36
L217.98 -36
L215.19 -36
L212.4 -36
L209.61 -36
L206.82 -36
L204.03 -36
L201.24 -36
L198.45 -36
L195.66 -36
L192.87 -36
L190.08 -36
L187.29 -36
L184.5 -36
L181.71 -36
L178.92 -36
L176.13 -36
L173.34 -36
L170.55 -36
L167.76 -36
L164.97 -36
L162.18 -36
L159.39 -36
L156.6 -36
L153.81 -36
L151.02 -36
L148.23 -36
L145.44 -36
L142.65 -36
L139.86 -36
L137.07 -36
L134.28 -36
L131.49 -36
L128.7 -36
L125.91 -36
L123.12 -36
L120.33 -36
L117.54 -36
L114.75 -36
L111.96 -36
L109.17 -36
L106.38 -36
L103.59 -36
L100.8 -36
L98.01 -36
L95.22 -36
L92.43 -36
L89.64 -36
L86.85 -36
L84.06 -36
L81.27 -36
L78.48 -36
L75.69 -36
L72.9 -36
L70.11 -36
L67.32 -36
L64.53 -36
L61.74 -36
L58.95 -36
L56.16 -36
L53.37 -36
L50.58 -36
L47.79 -36
L45 -36
z
" id="C0_0_321494c377"/>
    </defs>
    <g clip-path="url(#p4e9530b0aa)">
     <use style="fill:#ff00ff;opacity:0.1;stroke:#ff00ff;stroke-linecap:butt;" x="0" xlink:href="#C0_0_321494c377" y="180.0"/>
    </g>
   </g>
   <g id="line2d_1">
    <path clip-path="url(#p4e9530b0aa)" d="
M45 45.0139
L47.79 44.0356
L50.58 43.8829
L53.37 43.6904
L56.16 43.7559
L58.95 43.8708
L61.74 43.3769
L64.53 43.5709
L67.32 43.325
L70.11 42.9666
L72.9 43.6108
L75.69 43.6037
L78.48 43.3996
L81.27 43.2368
L84.06 42.8255
L86.85 42.4526
L89.64 42.7373
L92.43 43.1677
L95.22 43.0498
L98.01 42.879
L100.8 42.9631
L103.59 42.2464
L106.38 42.3508
L109.17 42.6244
L111.96 42.817
L114.75 42.7983
L117.54 42.8195
L120.33 42.8951
L123.12 43.0448
L125.91 42.9697
L128.7 42.8855
L131.49 42.571
L134.28 43.2302
L137.07 43.579
L139.86 43.5281
L142.65 43.7075
L145.44 43.2111
L148.23 42.9571
L151.02 43.1083
L153.81 43.1133
L156.6 43.3709
L159.39 43.6682
L162.18 43.3633
L164.97 43.6803
L167.76 43.7206
L170.55 43.5594
L173.34 43.517
L176.13 43.0513
L178.92 43.2549
L181.71 43.3416
L184.5 43.5165
L187.29 43.5745
L190.08 43.6758
L192.87 43.7171
L195.66 43.9641
L198.45 44.0502
L201.24 44.0064
L204.03 43.9424
L206.82 44.1672
L209.61 44.1994
L212.4 44.3526
L215.19 44.3471
L217.98 44.1395
L220.77 44.2413
L223.56 43.9671
L226.35 44.14
L229.14 44.0235
L231.93 44.1959
L234.72 44.2458
L237.51 44.0351
L240.3 44.0301
L243.09 43.8139
L245.88 44.082
L248.67 44.2161
L251.46 44.3033
L254.25 43.9918
L257.04 43.9031
L259.83 43.8819
L262.62 44.3874
L265.41 44.214
L268.2 44.0487
L270.99 43.6188
L273.78 43.701
L276.57 43.7927
L279.36 43.9676
L282.15 44.5825
L284.94 44.1248
L287.73 43.6319
L290.52 43.6566
L293.31 43.7428
L296.1 43.7509
L298.89 43.644
L301.68 43.518
L304.47 43.8436
L307.26 43.6657
L310.05 43.9217
L312.84 43.7751
L315.63 44.0124
L318.42 43.6959
L321.21 43.7539
L324 43.4152" style="fill:none;stroke:#ff00ff;"/>
   </g>
   <g id="matplotlib.axis_1">
    <g id="xtick_1">
     <g id="line2d_2">
      <defs>
       <path d="
M0 0
L0 -4" id="mcb557df647" style="stroke:#000000;stroke-linecap:butt;stroke-width:0.5;"/>
      </defs>
      <g>
       <use style="stroke:#000000;stroke-linecap:butt;stroke-width:0.5;" x="45.0" xlink:href="#mcb557df647" y="144.0"/>
      </g>
     </g>
     <g id="line2d_3">
      <defs>
       <path d="
M0 0
L0 4" id="mdad270ee8e" style="stroke:#000000;stroke-linecap:butt;stroke-width:0.5;"/>
      </defs>
      <g>
       <use style="stroke:#000000;stroke-linecap:butt;stroke-width:0.5;" x="45.0" xlink:href="#mdad270ee8e" y="18.0"/>
      </g>
     </g>
     <g id="text_1">
      <!-- 0 -->
      <defs>
       <path d="
M31.7812 66.4062
Q24.1719 66.4062 20.3281 58.9062
Q16.5 51.4219 16.5 36.375
Q16.5 21.3906 20.3281 13.8906
Q24.1719 6.39062 31.7812 6.39062
Q39.4531 6.39062 43.2812 13.8906
Q47.125 21.3906 47.125 36.375
Q47.125 51.4219 43.2812 58.9062
Q39.4531 66.4062 31.7812 66.4062
M31.7812 74.2188
Q44.0469 74.2188 50.5156 64.5156
Q56.9844 54.8281 56.9844 36.375
Q56.9844 17.9688 50.5156 8.26562
Q44.0469 -1.42188 31.7812 -1.42188
Q19.5312 -1.42188 13.0625 8.26562
Q6.59375 17.9688 6.59375 36.375
Q6.59375 54.8281 13.0625 64.5156
Q19.5312 74.2188 31.7812 74.2188" id="BitstreamVeraSans-Roman-30"/>
      </defs>
      <g transform="translate(42.48046875 155.421875)scale(0.1 -0.1)">
       <use xlink:href="#BitstreamVeraSans-Roman-30"/>
      </g>
     </g>
    </g>
    <g id="xtick_2">
     <g id="line2d_4">
      <g>
       <use style="stroke:#000000;stroke-linecap:butt;stroke-width:0.5;" x="100.8" xlink:href="#mcb557df647" y="144.0"/>
      </g>
     </g>
     <g id="line2d_5">
      <g>
       <use style="stroke:#000000;stroke-linecap:butt;stroke-width:0.5;" x="100.8" xlink:href="#mdad270ee8e" y="18.0"/>
      </g>
     </g>
     <g id="text_2">
      <!-- 20 -->
      <defs>
       <path d="
M19.1875 8.29688
L53.6094 8.29688
L53.6094 0
L7.32812 0
L7.32812 8.29688
Q12.9375 14.1094 22.625 23.8906
Q32.3281 33.6875 34.8125 36.5312
Q39.5469 41.8438 41.4219 45.5312
Q43.3125 49.2188 43.3125 52.7812
Q43.3125 58.5938 39.2344 62.25
Q35.1562 65.9219 28.6094 65.9219
Q23.9688 65.9219 18.8125 64.3125
Q13.6719 62.7031 7.8125 59.4219
L7.8125 69.3906
Q13.7656 71.7812 18.9375 73
Q24.125 74.2188 28.4219 74.2188
Q39.75 74.2188 46.4844 68.5469
Q53.2188 62.8906 53.2188 53.4219
Q53.2188 48.9219 51.5312 44.8906
Q49.8594 40.875 45.4062 35.4062
Q44.1875 33.9844 37.6406 27.2188
Q31.1094 20.4531 19.1875 8.29688" id="BitstreamVeraSans-Roman-32"/>
      </defs>
      <g transform="translate(95.1359375 155.421875)scale(0.1 -0.1)">
       <use xlink:href="#BitstreamVeraSans-Roman-32"/>
       <use x="63.623046875" xlink:href="#BitstreamVeraSans-Roman-30"/>
      </g>
     </g>
    </g>
    <g id="xtick_3">
     <g id="line2d_6">
      <g>
       <use style="stroke:#000000;stroke-linecap:butt;stroke-width:0.5;" x="156.6" xlink:href="#mcb557df647" y="144.0"/>
      </g>
     </g>
     <g id="line2d_7">
      <g>
       <use style="stroke:#000000;stroke-linecap:butt;stroke-width:0.5;" x="156.6" xlink:href="#mdad270ee8e" y="18.0"/>
      </g>
     </g>
     <g id="text_3">
      <!-- 40 -->
      <defs>
       <path d="
M37.7969 64.3125
L12.8906 25.3906
L37.7969 25.3906
z

M35.2031 72.9062
L47.6094 72.9062
L47.6094 25.3906
L58.0156 25.3906
L58.0156 17.1875
L47.6094 17.1875
L47.6094 0
L37.7969 0
L37.7969 17.1875
L4.89062 17.1875
L4.89062 26.7031
z
" id="BitstreamVeraSans-Roman-34"/>
      </defs>
      <g transform="translate(150.8140625 155.421875)scale(0.1 -0.1)">
       <use xlink:href="#BitstreamVeraSans-Roman-34"/>
       <use x="63.623046875" xlink:href="#BitstreamVeraSans-Roman-30"/>
      </g>
     </g>
    </g>
    <g id="xtick_4">
     <g id="line2d_8">
      <g>
       <use style="stroke:#000000;stroke-linecap:butt;stroke-width:0.5;" x="212.4" xlink:href="#mcb557df647" y="144.0"/>
      </g>
     </g>
     <g id="line2d_9">
      <g>
       <use style="stroke:#000000;stroke-linecap:butt;stroke-width:0.5;" x="212.4" xlink:href="#mdad270ee8e" y="18.0"/>
      </g>
     </g>
     <g id="text_4">
      <!-- 60 -->
      <defs>
       <path d="
M33.0156 40.375
Q26.375 40.375 22.4844 35.8281
Q18.6094 31.2969 18.6094 23.3906
Q18.6094 15.5312 22.4844 10.9531
Q26.375 6.39062 33.0156 6.39062
Q39.6562 6.39062 43.5312 10.9531
Q47.4062 15.5312 47.4062 23.3906
Q47.4062 31.2969 43.5312 35.8281
Q39.6562 40.375 33.0156 40.375
M52.5938 71.2969
L52.5938 62.3125
Q48.875 64.0625 45.0938 64.9844
Q41.3125 65.9219 37.5938 65.9219
Q27.8281 65.9219 22.6719 59.3281
Q17.5312 52.7344 16.7969 39.4062
Q19.6719 43.6562 24.0156 45.9219
Q28.375 48.1875 33.5938 48.1875
Q44.5781 48.1875 50.9531 41.5156
Q57.3281 34.8594 57.3281 23.3906
Q57.3281 12.1562 50.6875 5.35938
Q44.0469 -1.42188 33.0156 -1.42188
Q20.3594 -1.42188 13.6719 8.26562
Q6.98438 17.9688 6.98438 36.375
Q6.98438 53.6562 15.1875 63.9375
Q23.3906 74.2188 37.2031 74.2188
Q40.9219 74.2188 44.7031 73.4844
Q48.4844 72.75 52.5938 71.2969" id="BitstreamVeraSans-Roman-36"/>
      </defs>
      <g transform="translate(206.71875 155.421875)scale(0.1 -0.1)">
       <use xlink:href="#BitstreamVeraSans-Roman-36"/>
       <use x="63.623046875" xlink:href="#BitstreamVeraSans-Roman-30"/>
      </g>
     </g>
    </g>
    <g id="xtick_5">
     <g id="line2d_10">
      <g>
       <use style="stroke:#000000;stroke-linecap:butt;stroke-width:0.5;" x="268.2" xlink:href="#mcb557df647" y="144.0"/>
      </g>
     </g>
     <g id="line2d_11">
      <g>
       <use style="stroke:#000000;stroke-linecap:butt;stroke-width:0.5;" x="268.2" xlink:href="#mdad270ee8e" y="18.0"/>
      </g>
     </g>
     <g id="text_5">
      <!-- 80 -->
      <defs>
       <path d="
M31.7812 34.625
Q24.75 34.625 20.7188 30.8594
Q16.7031 27.0938 16.7031 20.5156
Q16.7031 13.9219 20.7188 10.1562
Q24.75 6.39062 31.7812 6.39062
Q38.8125 6.39062 42.8594 10.1719
Q46.9219 13.9688 46.9219 20.5156
Q46.9219 27.0938 42.8906 30.8594
Q38.875 34.625 31.7812 34.625
M21.9219 38.8125
Q15.5781 40.375 12.0312 44.7188
Q8.5 49.0781 8.5 55.3281
Q8.5 64.0625 14.7188 69.1406
Q20.9531 74.2188 31.7812 74.2188
Q42.6719 74.2188 48.875 69.1406
Q55.0781 64.0625 55.0781 55.3281
Q55.0781 49.0781 51.5312 44.7188
Q48 40.375 41.7031 38.8125
Q48.8281 37.1562 52.7969 32.3125
Q56.7812 27.4844 56.7812 20.5156
Q56.7812 9.90625 50.3125 4.23438
Q43.8438 -1.42188 31.7812 -1.42188
Q19.7344 -1.42188 13.25 4.23438
Q6.78125 9.90625 6.78125 20.5156
Q6.78125 27.4844 10.7812 32.3125
Q14.7969 37.1562 21.9219 38.8125
M18.3125 54.3906
Q18.3125 48.7344 21.8438 45.5625
Q25.3906 42.3906 31.7812 42.3906
Q38.1406 42.3906 41.7188 45.5625
Q45.3125 48.7344 45.3125 54.3906
Q45.3125 60.0625 41.7188 63.2344
Q38.1406 66.4062 31.7812 66.4062
Q25.3906 66.4062 21.8438 63.2344
Q18.3125 60.0625 18.3125 54.3906" id="BitstreamVeraSans-Roman-38"/>
      </defs>
      <g transform="translate(262.50859375 155.421875)scale(0.1 -0.1)">
       <use xlink:href="#BitstreamVeraSans-Roman-38"/>
       <use x="63.623046875" xlink:href="#BitstreamVeraSans-Roman-30"/>
      </g>
     </g>
    </g>
    <g id="xtick_6">
     <g id="line2d_12">
      <g>
       <use style="stroke:#000000;stroke-linecap:butt;stroke-width:0.5;" x="324.0" xlink:href="#mcb557df647" y="144.0"/>
      </g>
     </g>
     <g id="line2d_13">
      <g>
       <use style="stroke:#000000;stroke-linecap:butt;stroke-width:0.5;" x="324.0" xlink:href="#mdad270ee8e" y="18.0"/>
      </g>
     </g>
     <g id="text_6">
      <!-- 100 -->
      <defs>
       <path d="
M12.4062 8.29688
L28.5156 8.29688
L28.5156 63.9219
L10.9844 60.4062
L10.9844 69.3906
L28.4219 72.9062
L38.2812 72.9062
L38.2812 8.29688
L54.3906 8.29688
L54.3906 0
L12.4062 0
z
" id="BitstreamVeraSans-Roman-31"/>
      </defs>
      <g transform="translate(315.3375 155.421875)scale(0.1 -0.1)">
       <use xlink:href="#BitstreamVeraSans-Roman-31"/>
       <use x="63.623046875" xlink:href="#BitstreamVeraSans-Roman-30"/>
       <use x="127.24609375" xlink:href="#BitstreamVeraSans-Roman-30"/>
      </g>
     </g>
    </g>
    <g id="text_7">
     <!-- time $t$ (ps) -->
     <defs>
      <path id="BitstreamVeraSans-Roman-20"/>
      <path d="
M8.01562 75.875
L15.8281 75.875
Q23.1406 64.3594 26.7812 53.3125
Q30.4219 42.2812 30.4219 31.3906
Q30.4219 20.4531 26.7812 9.375
Q23.1406 -1.70312 15.8281 -13.1875
L8.01562 -13.1875
Q14.5 -2 17.7031 9.0625
Q20.9062 20.125 20.9062 31.3906
Q20.9062 42.6719 17.7031 53.6562
Q14.5 64.6562 8.01562 75.875" id="BitstreamVeraSans-Roman-29"/>
      <path d="
M52 44.1875
Q55.375 50.25 60.0625 53.125
Q64.75 56 71.0938 56
Q79.6406 56 84.2812 50.0156
Q88.9219 44.0469 88.9219 33.0156
L88.9219 0
L79.8906 0
L79.8906 32.7188
Q79.8906 40.5781 77.0938 44.375
Q74.3125 48.1875 68.6094 48.1875
Q61.625 48.1875 57.5625 43.5469
Q53.5156 38.9219 53.5156 30.9062
L53.5156 0
L44.4844 0
L44.4844 32.7188
Q44.4844 40.625 41.7031 44.4062
Q38.9219 48.1875 33.1094 48.1875
Q26.2188 48.1875 22.1562 43.5312
Q18.1094 38.875 18.1094 30.9062
L18.1094 0
L9.07812 0
L9.07812 54.6875
L18.1094 54.6875
L18.1094 46.1875
Q21.1875 51.2188 25.4844 53.6094
Q29.7812 56 35.6875 56
Q41.6562 56 45.8281 52.9688
Q50 49.9531 52 44.1875" id="BitstreamVeraSans-Roman-6d"/>
      <path d="
M9.42188 54.6875
L18.4062 54.6875
L18.4062 0
L9.42188 0
z

M9.42188 75.9844
L18.4062 75.9844
L18.4062 64.5938
L9.42188 64.5938
z
" id="BitstreamVeraSans-Roman-69"/>
      <path d="
M6.20312 8.10938
Q6.20312 9.57812 6.5 10.8906
L13.7188 39.5938
L3.21875 39.5938
Q2.20312 39.5938 2.20312 40.9219
Q2.59375 43.1094 3.51562 43.1094
L14.5938 43.1094
L18.6094 59.4219
Q19 60.75 20.1719 61.6719
Q21.3438 62.5938 22.7969 62.5938
Q24.0781 62.5938 24.9219 61.8281
Q25.7812 61.0781 25.7812 59.8125
Q25.7812 59.5156 25.75 59.3438
Q25.7344 59.1875 25.6875 58.9844
L21.6875 43.1094
L31.9844 43.1094
Q33.0156 43.1094 33.0156 41.7969
Q32.9531 41.5469 32.8125 40.9531
Q32.6719 40.375 32.4219 39.9844
Q32.1719 39.5938 31.6875 39.5938
L20.7969 39.5938
L13.625 10.6875
Q12.8906 7.85938 12.8906 5.8125
Q12.8906 1.51562 15.8281 1.51562
Q20.2188 1.51562 23.6094 5.64062
Q27 9.76562 28.8125 14.7031
Q29.2031 15.2812 29.5938 15.2812
L30.8125 15.2812
Q31.2031 15.2812 31.4375 15.0156
Q31.6875 14.75 31.6875 14.4062
Q31.6875 14.2031 31.5938 14.1094
Q29.3906 8.0625 25.1875 3.46875
Q21 -1.125 15.5781 -1.125
Q11.625 -1.125 8.90625 1.45312
Q6.20312 4.04688 6.20312 8.10938" id="Cmmi10-74"/>
      <path d="
M31 75.875
Q24.4688 64.6562 21.2812 53.6562
Q18.1094 42.6719 18.1094 31.3906
Q18.1094 20.125 21.3125 9.0625
Q24.5156 -2 31 -13.1875
L23.1875 -13.1875
Q15.875 -1.70312 12.2344 9.375
Q8.59375 20.4531 8.59375 31.3906
Q8.59375 42.2812 12.2031 53.3125
Q15.8281 64.3594 23.1875 75.875
z
" id="BitstreamVeraSans-Roman-28"/>
      <path d="
M56.2031 29.5938
L56.2031 25.2031
L14.8906 25.2031
Q15.4844 15.9219 20.4844 11.0625
Q25.4844 6.20312 34.4219 6.20312
Q39.5938 6.20312 44.4531 7.46875
Q49.3125 8.73438 54.1094 11.2812
L54.1094 2.78125
Q49.2656 0.734375 44.1875 -0.34375
Q39.1094 -1.42188 33.8906 -1.42188
Q20.7969 -1.42188 13.1562 6.1875
Q5.51562 13.8125 5.51562 26.8125
Q5.51562 40.2344 12.7656 48.1094
Q20.0156 56 32.3281 56
Q43.3594 56 49.7812 48.8906
Q56.2031 41.7969 56.2031 29.5938
M47.2188 32.2344
Q47.125 39.5938 43.0938 43.9844
Q39.0625 48.3906 32.4219 48.3906
Q24.9062 48.3906 20.3906 44.1406
Q15.875 39.8906 15.1875 32.1719
z
" id="BitstreamVeraSans-Roman-65"/>
      <path d="
M18.3125 70.2188
L18.3125 54.6875
L36.8125 54.6875
L36.8125 47.7031
L18.3125 47.7031
L18.3125 18.0156
Q18.3125 11.3281 20.1406 9.42188
Q21.9688 7.51562 27.5938 7.51562
L36.8125 7.51562
L36.8125 0
L27.5938 0
Q17.1875 0 13.2344 3.875
Q9.28125 7.76562 9.28125 18.0156
L9.28125 47.7031
L2.6875 47.7031
L2.6875 54.6875
L9.28125 54.6875
L9.28125 70.2188
z
" id="BitstreamVeraSans-Roman-74"/>
      <path d="
M44.2812 53.0781
L44.2812 44.5781
Q40.4844 46.5312 36.375 47.5
Q32.2812 48.4844 27.875 48.4844
Q21.1875 48.4844 17.8438 46.4375
Q14.5 44.3906 14.5 40.2812
Q14.5 37.1562 16.8906 35.375
Q19.2812 33.5938 26.5156 31.9844
L29.5938 31.2969
Q39.1562 29.25 43.1875 25.5156
Q47.2188 21.7812 47.2188 15.0938
Q47.2188 7.46875 41.1875 3.01562
Q35.1562 -1.42188 24.6094 -1.42188
Q20.2188 -1.42188 15.4531 -0.5625
Q10.6875 0.296875 5.42188 2
L5.42188 11.2812
Q10.4062 8.6875 15.2344 7.39062
Q20.0625 6.10938 24.8125 6.10938
Q31.1562 6.10938 34.5625 8.28125
Q37.9844 10.4531 37.9844 14.4062
Q37.9844 18.0625 35.5156 20.0156
Q33.0625 21.9688 24.7031 23.7812
L21.5781 24.5156
Q13.2344 26.2656 9.51562 29.9062
Q5.8125 33.5469 5.8125 39.8906
Q5.8125 47.6094 11.2812 51.7969
Q16.75 56 26.8125 56
Q31.7812 56 36.1719 55.2656
Q40.5781 54.5469 44.2812 53.0781" id="BitstreamVeraSans-Roman-73"/>
      <path d="
M18.1094 8.20312
L18.1094 -20.7969
L9.07812 -20.7969
L9.07812 54.6875
L18.1094 54.6875
L18.1094 46.3906
Q20.9531 51.2656 25.2656 53.625
Q29.5938 56 35.5938 56
Q45.5625 56 51.7812 48.0938
Q58.0156 40.1875 58.0156 27.2969
Q58.0156 14.4062 51.7812 6.48438
Q45.5625 -1.42188 35.5938 -1.42188
Q29.5938 -1.42188 25.2656 0.953125
Q20.9531 3.32812 18.1094 8.20312
M48.6875 27.2969
Q48.6875 37.2031 44.6094 42.8438
Q40.5312 48.4844 33.4062 48.4844
Q26.2656 48.4844 22.1875 42.8438
Q18.1094 37.2031 18.1094 27.2969
Q18.1094 17.3906 22.1875 11.75
Q26.2656 6.10938 33.4062 6.10938
Q40.5312 6.10938 44.6094 11.75
Q48.6875 17.3906 48.6875 27.2969" id="BitstreamVeraSans-Roman-70"/>
     </defs>
     <g transform="translate(158.5 170.2640625)scale(0.1 -0.1)">
      <use transform="translate(0.0 21.015625)" xlink:href="#BitstreamVeraSans-Roman-74"/>
      <use transform="translate(39.208984375 21.015625)" xlink:href="#BitstreamVeraSans-Roman-69"/>
      <use transform="translate(66.9921875 21.015625)" xlink:href="#BitstreamVeraSans-Roman-6d"/>
      <use transform="translate(164.404296875 21.015625)" xlink:href="#BitstreamVeraSans-Roman-65"/>
      <use transform="translate(225.927734375 21.015625)" xlink:href="#BitstreamVeraSans-Roman-20"/>
      <use transform="translate(257.71484375 21.015625)" xlink:href="#Cmmi10-74"/>
      <use transform="translate(293.798828125 21.015625)" xlink:href="#BitstreamVeraSans-Roman-20"/>
      <use transform="translate(325.5859375 21.015625)" xlink:href="#BitstreamVeraSans-Roman-28"/>
      <use transform="translate(364.599609375 21.015625)" xlink:href="#BitstreamVeraSans-Roman-70"/>
      <use transform="translate(428.076171875 21.015625)" xlink:href="#BitstreamVeraSans-Roman-73"/>
      <use transform="translate(480.17578125 21.015625)" xlink:href="#BitstreamVeraSans-Roman-29"/>
     </g>
    </g>
   </g>
   <g id="matplotlib.axis_2">
    <g id="ytick_1">
     <g id="line2d_14">
      <defs>
       <path d="
M0 0
L4 0" id="mc8fcea1516" style="stroke:#000000;stroke-linecap:butt;stroke-width:0.5;"/>
      </defs>
      <g>
       <use style="stroke:#000000;stroke-linecap:butt;stroke-width:0.5;" x="45.0" xlink:href="#mc8fcea1516" y="144.0"/>
      </g>
     </g>
     <g id="line2d_15">
      <defs>
       <path d="
M0 0
L-4 0" id="m0d5b0a6425" style="stroke:#000000;stroke-linecap:butt;stroke-width:0.5;"/>
      </defs>
      <g>
       <use style="stroke:#000000;stroke-linecap:butt;stroke-width:0.5;" x="324.0" xlink:href="#m0d5b0a6425" y="144.0"/>
      </g>
     </g>
     <g id="text_8">
      <!-- 0.0 -->
      <defs>
       <path d="
M10.6875 12.4062
L21 12.4062
L21 0
L10.6875 0
z
" id="BitstreamVeraSans-Roman-2e"/>
      </defs>
      <g transform="translate(26.4203125 147.63984375)scale(0.1 -0.1)">
       <use xlink:href="#BitstreamVeraSans-Roman-30"/>
       <use x="63.623046875" xlink:href="#BitstreamVeraSans-Roman-2e"/>
       <use x="95.41015625" xlink:href="#BitstreamVeraSans-Roman-30"/>
      </g>
     </g>
    </g>
    <g id="ytick_2">
     <g id="line2d_16">
      <g>
       <use style="stroke:#000000;stroke-linecap:butt;stroke-width:0.5;" x="45.0" xlink:href="#mc8fcea1516" y="118.8"/>
      </g>
     </g>
     <g id="line2d_17">
      <g>
       <use style="stroke:#000000;stroke-linecap:butt;stroke-width:0.5;" x="324.0" xlink:href="#m0d5b0a6425" y="118.8"/>
      </g>
     </g>
     <g id="text_9">
      <!-- 0.5 -->
      <defs>
       <path d="
M10.7969 72.9062
L49.5156 72.9062
L49.5156 64.5938
L19.8281 64.5938
L19.8281 46.7344
Q21.9688 47.4688 24.1094 47.8281
Q26.2656 48.1875 28.4219 48.1875
Q40.625 48.1875 47.75 41.5
Q54.8906 34.8125 54.8906 23.3906
Q54.8906 11.625 47.5625 5.09375
Q40.2344 -1.42188 26.9062 -1.42188
Q22.3125 -1.42188 17.5469 -0.640625
Q12.7969 0.140625 7.71875 1.70312
L7.71875 11.625
Q12.1094 9.23438 16.7969 8.0625
Q21.4844 6.89062 26.7031 6.89062
Q35.1562 6.89062 40.0781 11.3281
Q45.0156 15.7656 45.0156 23.3906
Q45.0156 31 40.0781 35.4375
Q35.1562 39.8906 26.7031 39.8906
Q22.75 39.8906 18.8125 39.0156
Q14.8906 38.1406 10.7969 36.2812
z
" id="BitstreamVeraSans-Roman-35"/>
      </defs>
      <g transform="translate(26.6296875 122.43984375)scale(0.1 -0.1)">
       <use xlink:href="#BitstreamVeraSans-Roman-30"/>
       <use x="63.623046875" xlink:href="#BitstreamVeraSans-Roman-2e"/>
       <use x="95.41015625" xlink:href="#BitstreamVeraSans-Roman-35"/>
      </g>
     </g>
    </g>
    <g id="ytick_3">
     <g id="line2d_18">
      <g>
       <use style="stroke:#000000;stroke-linecap:butt;stroke-width:0.5;" x="45.0" xlink:href="#mc8fcea1516" y="93.6"/>
      </g>
     </g>
     <g id="line2d_19">
      <g>
       <use style="stroke:#000000;stroke-linecap:butt;stroke-width:0.5;" x="324.0" xlink:href="#m0d5b0a6425" y="93.6"/>
      </g>
     </g>
     <g id="text_10">
      <!-- 1.0 -->
      <g transform="translate(26.859375 97.23984375)scale(0.1 -0.1)">
       <use xlink:href="#BitstreamVeraSans-Roman-31"/>
       <use x="63.623046875" xlink:href="#BitstreamVeraSans-Roman-2e"/>
       <use x="95.41015625" xlink:href="#BitstreamVeraSans-Roman-30"/>
      </g>
     </g>
    </g>
    <g id="ytick_4">
     <g id="line2d_20">
      <g>
       <use style="stroke:#000000;stroke-linecap:butt;stroke-width:0.5;" x="45.0" xlink:href="#mc8fcea1516" y="68.4"/>
      </g>
     </g>
     <g id="line2d_21">
      <g>
       <use style="stroke:#000000;stroke-linecap:butt;stroke-width:0.5;" x="324.0" xlink:href="#m0d5b0a6425" y="68.4"/>
      </g>
     </g>
     <g id="text_11">
      <!-- 1.5 -->
      <g transform="translate(27.06875 71.97421875)scale(0.1 -0.1)">
       <use xlink:href="#BitstreamVeraSans-Roman-31"/>
       <use x="63.623046875" xlink:href="#BitstreamVeraSans-Roman-2e"/>
       <use x="95.41015625" xlink:href="#BitstreamVeraSans-Roman-35"/>
      </g>
     </g>
    </g>
    <g id="ytick_5">
     <g id="line2d_22">
      <g>
       <use style="stroke:#000000;stroke-linecap:butt;stroke-width:0.5;" x="45.0" xlink:href="#mc8fcea1516" y="43.2"/>
      </g>
     </g>
     <g id="line2d_23">
      <g>
       <use style="stroke:#000000;stroke-linecap:butt;stroke-width:0.5;" x="324.0" xlink:href="#m0d5b0a6425" y="43.2"/>
      </g>
     </g>
     <g id="text_12">
      <!-- 2.0 -->
      <g transform="translate(26.49375 46.83984375)scale(0.1 -0.1)">
       <use xlink:href="#BitstreamVeraSans-Roman-32"/>
       <use x="63.623046875" xlink:href="#BitstreamVeraSans-Roman-2e"/>
       <use x="95.41015625" xlink:href="#BitstreamVeraSans-Roman-30"/>
      </g>
     </g>
    </g>
    <g id="ytick_6">
     <g id="line2d_24">
      <g>
       <use style="stroke:#000000;stroke-linecap:butt;stroke-width:0.5;" x="45.0" xlink:href="#mc8fcea1516" y="18.0"/>
      </g>
     </g>
     <g id="line2d_25">
      <g>
       <use style="stroke:#000000;stroke-linecap:butt;stroke-width:0.5;" x="324.0" xlink:href="#m0d5b0a6425" y="18.0"/>
      </g>
     </g>
     <g id="text_13">
      <!-- 2.5 -->
      <g transform="translate(26.703125 21.63984375)scale(0.1 -0.1)">
       <use xlink:href="#BitstreamVeraSans-Roman-32"/>
       <use x="63.623046875" xlink:href="#BitstreamVeraSans-Roman-2e"/>
       <use x="95.41015625" xlink:href="#BitstreamVeraSans-Roman-35"/>
      </g>
     </g>
    </g>
    <g id="text_14">
     <!-- protein $R_\mathrm{gyr}$ (nm) -->
     <defs>
      <path d="
M54.8906 33.0156
L54.8906 0
L45.9062 0
L45.9062 32.7188
Q45.9062 40.4844 42.875 44.3281
Q39.8438 48.1875 33.7969 48.1875
Q26.5156 48.1875 22.3125 43.5469
Q18.1094 38.9219 18.1094 30.9062
L18.1094 0
L9.07812 0
L9.07812 54.6875
L18.1094 54.6875
L18.1094 46.1875
Q21.3438 51.125 25.7031 53.5625
Q30.0781 56 35.7969 56
Q45.2188 56 50.0469 50.1719
Q54.8906 44.3438 54.8906 33.0156" id="BitstreamVeraSans-Roman-6e"/>
      <path d="
M4.89062 0
Q3.90625 0 3.90625 1.3125
Q3.95312 1.5625 4.09375 2.17188
Q4.25 2.78125 4.51562 3.14062
Q4.78125 3.51562 5.17188 3.51562
Q11.2812 3.51562 13.7188 4.20312
Q14.9844 4.64062 15.5781 6.89062
L29.2969 61.8125
Q29.5 62.7969 29.5 63.1875
Q29.5 64.2656 28.3281 64.4062
Q26.4219 64.7969 21.0938 64.7969
Q20.125 64.7969 20.125 66.1094
Q20.1719 66.3594 20.3125 66.9688
Q20.4531 67.5781 20.7188 67.9375
Q21 68.3125 21.3906 68.3125
L51.7031 68.3125
Q55.3281 68.3125 59.2344 67.4844
Q63.1406 66.6562 66.4062 64.875
Q69.6719 63.0938 71.7656 60.125
Q73.875 57.1719 73.875 53.2188
Q73.875 48.1875 70.5469 44.2344
Q67.2344 40.2812 62.1562 37.625
Q57.0781 34.9688 52.2969 33.8906
Q56.2031 32.4688 58.6875 29.3594
Q61.1875 26.2656 61.1875 22.2188
Q61.1875 21.6875 61.1562 21.4062
Q61.1406 21.1406 61.0781 20.7969
L60.2969 11.9219
Q60.2031 9.96875 60.1094 8.59375
Q60.0156 7.23438 60.0156 6.39062
Q60.0156 3.65625 60.8125 2.01562
Q61.625 0.390625 64.0156 0.390625
Q67.1406 0.390625 69.5 3.29688
Q71.875 6.20312 72.6094 9.625
Q73.0469 10.5 73.5781 10.5
L74.5156 10.5
Q75.4844 10.5 75.4844 9.1875
Q74.75 6.29688 73.1562 3.70312
Q71.5781 1.125 69.1562 -0.53125
Q66.75 -2.20312 63.9219 -2.20312
Q58.0625 -2.20312 53.9375 0.40625
Q49.8125 3.03125 49.8125 8.59375
Q49.8125 10.6875 50.2031 12.3125
L52.3906 21.1875
Q52.7812 22.4062 52.7812 24.0312
Q52.7812 28.1719 49.9688 30.5312
Q47.1719 32.9062 42.9219 32.9062
L30.6094 32.9062
L24.0312 6.5
Q23.7812 5.67188 23.7812 5.07812
Q23.7812 4.04688 25 3.90625
Q26.9062 3.51562 32.1719 3.51562
Q33.2031 3.51562 33.2031 2.20312
Q32.8594 0.78125 32.6562 0.390625
Q32.4688 0 31.5 0
z

M31.2031 35.5
L42.2812 35.5
Q53.1719 35.5 58.6875 41.0156
Q61.2344 43.5625 62.7188 47.4844
Q64.2031 51.4219 64.2031 55.3281
Q64.2031 59.0312 62.0312 61.125
Q59.8594 63.2344 56.6562 64.0156
Q53.4688 64.7969 49.6094 64.7969
L42.9219 64.7969
Q40.1875 64.7969 39.2969 64.3281
Q38.4219 63.875 37.7031 61.375
z
" id="Cmmi10-52"/>
      <path d="
M30.6094 48.3906
Q23.3906 48.3906 19.1875 42.75
Q14.9844 37.1094 14.9844 27.2969
Q14.9844 17.4844 19.1562 11.8438
Q23.3438 6.20312 30.6094 6.20312
Q37.7969 6.20312 41.9844 11.8594
Q46.1875 17.5312 46.1875 27.2969
Q46.1875 37.0156 41.9844 42.7031
Q37.7969 48.3906 30.6094 48.3906
M30.6094 56
Q42.3281 56 49.0156 48.375
Q55.7188 40.7656 55.7188 27.2969
Q55.7188 13.875 49.0156 6.21875
Q42.3281 -1.42188 30.6094 -1.42188
Q18.8438 -1.42188 12.1719 6.21875
Q5.51562 13.875 5.51562 27.2969
Q5.51562 40.7656 12.1719 48.375
Q18.8438 56 30.6094 56" id="BitstreamVeraSans-Roman-6f"/>
      <path d="
M6.89062 -16.4062
Q8.79688 -17.9219 11.0781 -17.9219
Q17.3906 -17.9219 21.3906 -8.40625
L24.8125 0
L9.8125 36.7188
Q8.89062 38.5781 6.98438 39.0781
Q5.07812 39.5938 1.90625 39.5938
L1.90625 43.1094
L22.9062 43.1094
L22.9062 39.5938
Q17.3906 39.5938 17.3906 37.2031
Q17.3906 36.8125 17.4844 36.625
L28.6094 9.28125
L38.625 33.8906
Q38.9219 34.6719 38.9219 35.5938
Q38.9219 36.8125 38.25 37.7188
Q37.5938 38.625 36.5469 39.1094
Q35.5 39.5938 34.1875 39.5938
L34.1875 43.1094
L50.7812 43.1094
L50.7812 39.5938
Q47.7031 39.5938 45.375 38.1719
Q43.0625 36.7656 41.7969 33.9844
L24.5156 -8.40625
Q23.1406 -11.625 21.3125 -14.3281
Q19.4844 -17.0469 16.8438 -18.7812
Q14.2031 -20.5156 11.0781 -20.5156
Q7.42188 -20.5156 4.65625 -18.0938
Q1.90625 -15.6719 1.90625 -12.1094
Q1.90625 -10.25 3.17188 -8.98438
Q4.4375 -7.71875 6.29688 -7.71875
Q7.5625 -7.71875 8.5625 -8.28125
Q9.57812 -8.84375 10.125 -9.8125
Q10.6875 -10.7969 10.6875 -12.1094
Q10.6875 -13.7188 9.60938 -14.9844
Q8.54688 -16.2656 6.89062 -16.4062" id="Cmr10-79"/>
      <path d="
M2.78125 -7.8125
Q2.78125 -4.25 5.35938 -1.57812
Q7.95312 1.07812 11.5312 2.20312
Q9.51562 3.71875 8.46875 6
Q7.42188 8.29688 7.42188 10.8906
Q7.42188 15.5781 10.4062 19.1875
Q5.8125 23.6875 5.8125 29.5
Q5.8125 32.625 7.15625 35.3594
Q8.5 38.0938 10.8906 40.0938
Q13.2812 42.0938 16.2031 43.1406
Q19.1406 44.1875 22.2188 44.1875
Q28.1719 44.1875 32.9062 40.7188
Q34.9688 42.9219 37.7656 44.1094
Q40.5781 45.3125 43.6094 45.3125
Q45.75 45.3125 47.1094 43.7656
Q48.4844 42.2344 48.4844 40.0938
Q48.4844 38.875 47.5469 37.9375
Q46.625 37.0156 45.4062 37.0156
Q44.1406 37.0156 43.2031 37.9375
Q42.2812 38.875 42.2812 40.0938
Q42.2812 41.9375 43.5 42.6719
Q38.3281 42.6719 34.625 39.1094
Q36.4219 37.3125 37.5156 34.6875
Q38.625 32.0781 38.625 29.5
Q38.625 25.25 36.2812 21.8438
Q33.9375 18.4531 30.0938 16.5781
Q26.2656 14.7031 22.2188 14.7031
Q16.75 14.7031 12.2031 17.6719
Q10.7969 15.7188 10.7969 13.2812
Q10.7969 10.6406 12.5312 8.65625
Q14.2656 6.6875 16.8906 6.6875
L25.0938 6.6875
Q31.0625 6.6875 35.8438 5.60938
Q40.625 4.54688 43.875 1.3125
Q47.125 -1.90625 47.125 -7.8125
Q47.125 -12.2031 43.4062 -15.1094
Q39.7031 -18.0156 34.5469 -19.3125
Q29.3906 -20.6094 25 -20.6094
Q20.5625 -20.6094 15.375 -19.3125
Q10.2031 -18.0156 6.48438 -15.1094
Q2.78125 -12.2031 2.78125 -7.8125
M8.40625 -7.8125
Q8.40625 -11.1875 11.1406 -13.4531
Q13.875 -15.7188 17.7188 -16.8125
Q21.5781 -17.9219 25 -17.9219
Q28.375 -17.9219 32.2188 -16.8125
Q36.0781 -15.7188 38.7812 -13.4531
Q41.5 -11.1875 41.5 -7.8125
Q41.5 -2.59375 36.7188 -1.04688
Q31.9375 0.484375 25.0938 0.484375
L16.8906 0.484375
Q14.5938 0.484375 12.6719 -0.609375
Q10.75 -1.70312 9.57812 -3.6875
Q8.40625 -5.67188 8.40625 -7.8125
M22.2188 17.3906
Q30.7188 17.3906 30.7188 29.5
Q30.7188 34.7188 28.9062 38.1094
Q27.0938 41.5 22.2188 41.5
Q17.3281 41.5 15.5156 38.1094
Q13.7188 34.7188 13.7188 29.5
Q13.7188 26.1719 14.4062 23.4844
Q15.0938 20.7969 16.9375 19.0938
Q18.7969 17.3906 22.2188 17.3906" id="Cmr10-67"/>
      <path d="
M41.1094 46.2969
Q39.5938 47.1719 37.8125 47.5781
Q36.0312 48 33.8906 48
Q26.2656 48 22.1875 43.0469
Q18.1094 38.0938 18.1094 28.8125
L18.1094 0
L9.07812 0
L9.07812 54.6875
L18.1094 54.6875
L18.1094 46.1875
Q20.9531 51.1719 25.4844 53.5781
Q30.0312 56 36.5312 56
Q37.4531 56 38.5781 55.875
Q39.7031 55.7656 41.0625 55.5156
z
" id="BitstreamVeraSans-Roman-72"/>
      <path d="
M2.59375 0
L2.59375 3.51562
Q6 3.51562 8.20312 4.04688
Q10.4062 4.59375 10.4062 6.6875
L10.4062 33.9844
Q10.4062 36.6719 9.59375 37.8594
Q8.79688 39.0625 7.28125 39.3281
Q5.76562 39.5938 2.59375 39.5938
L2.59375 43.1094
L16.8906 44.1875
L16.8906 34.4219
Q18.5 38.7656 21.4844 41.4688
Q24.4688 44.1875 28.7188 44.1875
Q31.6875 44.1875 34.0312 42.4219
Q36.375 40.6719 36.375 37.7969
Q36.375 35.9844 35.0781 34.6406
Q33.7969 33.2969 31.8906 33.2969
Q30.0312 33.2969 28.7031 34.6094
Q27.3906 35.9375 27.3906 37.7969
Q27.3906 40.4844 29.2969 41.6094
L28.7188 41.6094
Q24.6562 41.6094 22.0938 38.6719
Q19.5312 35.75 18.4531 31.3906
Q17.3906 27.0469 17.3906 23.0938
L17.3906 6.6875
Q17.3906 3.51562 27.0938 3.51562
L27.0938 0
z
" id="Cmr10-72"/>
     </defs>
     <g transform="translate(21.4203125 122.8)rotate(-90.0)scale(0.1 -0.1)">
      <use transform="translate(0.0 40.015625)" xlink:href="#BitstreamVeraSans-Roman-70"/>
      <use transform="translate(63.4765625 40.015625)" xlink:href="#BitstreamVeraSans-Roman-72"/>
      <use transform="translate(104.58984375 40.015625)" xlink:href="#BitstreamVeraSans-Roman-6f"/>
      <use transform="translate(165.771484375 40.015625)" xlink:href="#BitstreamVeraSans-Roman-74"/>
      <use transform="translate(204.98046875 40.015625)" xlink:href="#BitstreamVeraSans-Roman-65"/>
      <use transform="translate(266.50390625 40.015625)" xlink:href="#BitstreamVeraSans-Roman-69"/>
      <use transform="translate(294.287109375 40.015625)" xlink:href="#BitstreamVeraSans-Roman-6e"/>
      <use transform="translate(357.666015625 40.015625)" xlink:href="#BitstreamVeraSans-Roman-20"/>
      <use transform="translate(389.453125 40.015625)" xlink:href="#Cmmi10-52"/>
      <use transform="translate(465.33203125 14.50625)scale(0.7)" xlink:href="#Cmr10-67"/>
      <use transform="translate(500.33203125 14.50625)scale(0.7)" xlink:href="#Cmr10-79"/>
      <use transform="translate(537.211914062 14.50625)scale(0.7)" xlink:href="#Cmr10-72"/>
      <use transform="translate(564.58984375 40.015625)" xlink:href="#BitstreamVeraSans-Roman-20"/>
      <use transform="translate(596.376953125 40.015625)" xlink:href="#BitstreamVeraSans-Roman-28"/>
      <use transform="translate(635.390625 40.015625)" xlink:href="#BitstreamVeraSans-Roman-6e"/>
      <use transform="translate(698.76953125 40.015625)" xlink:href="#BitstreamVeraSans-Roman-6d"/>
      <use transform="translate(796.181640625 40.015625)" xlink:href="#BitstreamVeraSans-Roman-29"/>
     </g>
    </g>
   </g>
   <g id="patch_3">
    <path d="
M45 18
L324 18" style="fill:none;stroke:#000000;"/>
   </g>
   <g id="patch_4">
    <path d="
M324 144
L324 18" style="fill:none;stroke:#000000;"/>
   </g>
   <g id="patch_5">
    <path d="
M45 144
L324 144" style="fill:none;stroke:#000000;"/>
   </g>
   <g id="patch_6">
    <path d="
M45 144
L45 18" style="fill:none;stroke:#000000;"/>
   </g>
  </g>
 </g>
 <defs>
  <clipPath id="p4e9530b0aa">
   <rect height="126.0" width="279.0" x="45.0" y="18.0"/>
  </clipPath>
 </defs>
</svg>
